<?xml version="1.0" encoding="utf-8"?>
<!-- Generator: Adobe Illustrator 19.2.1, SVG Export Plug-In . SVG Version: 6.00 Build 0)  -->
<svg version="1.1" id="Layer_1" xmlns="http://www.w3.org/2000/svg" xmlns:xlink="http://www.w3.org/1999/xlink" x="0px" y="0px"
	 width="28px" height="28px" viewBox="0 0 28 28" style="enable-background:new 0 0 28 28;" xml:space="preserve">
<style type="text/css">
	.st0{fill:#034580;}
	.st1{fill:#FFFFFF;}
	.st2{fill:none;}
	.st3{fill:#E3F1F8;}
	.st4{fill:#99D2E8;}
	.st5{fill:#002F5F;}
	.st6{fill:#EB174B;}
	.st7{font-family:'ITCFranklinGothicStd-Book';}
	.st8{font-size:0.1077px;}
	.st9{opacity:0.12;fill-rule:evenodd;clip-rule:evenodd;}
	.st10{fill:#282928;}
</style>
<g>
	<text transform="matrix(1 0 0 1 12.4834 14.4258)"><tspan x="0" y="0" class="st7 st8">Y</tspan><tspan x="0" y="0" class="st7 st8">ou</tspan><tspan x="0.2" y="0" class="st7 st8">T</tspan><tspan x="0.2" y="0" class="st7 st8">ube</tspan></text>
	<path id="Triangle" class="st1" d="M11.7,17.2l5.9-3.1L11.7,11V17.2z"/>
	<path id="The_Sharpness" class="st9" d="M11.7,11l5.2,3.5l0.7-0.4L11.7,11z"/>
	<g id="Lozenge">
		<path d="M24.8,10c0,0-0.2-1.5-0.9-2.2c-0.8-0.9-1.8-0.9-2.2-0.9C18.6,6.6,14,6.6,14,6.6h0c0,0-4.6,0-7.7,0.2
			C5.9,6.9,4.9,6.9,4.1,7.8C3.4,8.4,3.2,10,3.2,10S3,11.7,3,13.5v1.7c0,1.8,0.2,3.6,0.2,3.6s0.2,1.5,0.9,2.2
			c0.8,0.9,1.9,0.8,2.4,0.9C8.3,22,14,22.1,14,22.1s4.6,0,7.7-0.2c0.4-0.1,1.4-0.1,2.2-0.9c0.7-0.7,0.9-2.2,0.9-2.2S25,17,25,15.2
			v-1.7C25,11.7,24.8,10,24.8,10z M11.7,17.2l0-6.2l5.9,3.1L11.7,17.2z"/>
	</g>
</g>
</svg>
