<?xml version="1.0" encoding="utf-8"?>
<!-- Generator: Adobe Illustrator 19.2.1, SVG Export Plug-In . SVG Version: 6.00 Build 0)  -->
<svg version="1.1" id="Layer_1" xmlns="http://www.w3.org/2000/svg" xmlns:xlink="http://www.w3.org/1999/xlink" x="0px" y="0px"
	 width="28px" height="28px" viewBox="0 0 28 28" style="enable-background:new 0 0 28 28;" xml:space="preserve">
<style type="text/css">
	.st0{fill:#034580;}
	.st1{fill:#FFFFFF;}
	.st2{fill:none;}
	.st3{fill:#E3F1F8;}
	.st4{fill:#99D2E8;}
	.st5{fill:#002F5F;}
	.st6{fill:#EB174B;}
	.st7{opacity:0.12;fill-rule:evenodd;clip-rule:evenodd;}
	.st8{fill:#282928;}
</style>
<path d="M23,6h-4V5c0-0.5-0.5-1-1-1s-1,0.5-1,1v1h-6V5c0-0.5-0.5-1-1-1S9,4.5,9,5v1H5C4.5,6,4,6.5,4,7v16c0,0.5,0.5,1,1,1h18
	c0.5,0,1-0.5,1-1V7C24,6.5,23.5,6,23,6z M22,22H6v-8h16V22z M22,12H6V8h3v1c0,0.5,0.5,1,1,1s1-0.5,1-1V8h6v1c0,0.5,0.5,1,1,1
	s1-0.5,1-1V8h3V12z"/>
</svg>
