<?xml version="1.0" encoding="utf-8"?>
<!-- Generator: Adobe Illustrator 19.2.1, SVG Export Plug-In . SVG Version: 6.00 Build 0)  -->
<svg version="1.1" id="Layer_1" xmlns="http://www.w3.org/2000/svg" xmlns:xlink="http://www.w3.org/1999/xlink" x="0px" y="0px"
	 width="70px" height="70px" viewBox="0 0 70 70" style="enable-background:new 0 0 70 70;" xml:space="preserve">
<style type="text/css">
	.st0{fill:#034580;}
	.st1{fill:#FFFFFF;}
	.st2{fill:none;}
	.st3{fill:#E3F1F8;}
	.st4{fill:#99D2E8;}
	.st5{fill:#002F5F;}
	.st6{fill:#EB174B;}
	.st7{opacity:0.12;fill-rule:evenodd;clip-rule:evenodd;}
	.st8{fill:#282928;}
</style>
<g>
	<path class="st3" d="M42,59.5c-2.8,0-5.2-1.1-6.5-2.7c-1.4,1.1-3.3,1.7-5.5,1.7c-4.2,0-7.5-2.4-7.5-5.5v-6c0-0.2,0-0.3,0-0.5H15
		c-0.8,0-1.5-0.7-1.5-1.5V31V17c0-0.8,0.7-1.5,1.5-1.5h12.5V11c0-0.8,0.7-1.5,1.5-1.5h10c0.8,0,1.5,0.7,1.5,1.5v4.5H53
		c0.8,0,1.5,0.7,1.5,1.5v14v11.5c4,0.2,7,2.5,7,5.5v3.1C64.4,46.4,66,40.9,66,35C66,17.9,52.1,4,35,4S4,17.9,4,35
		c0,17.1,13.9,31,31,31c7.2,0,13.7-2.4,19-6.5c-2.5,0-4.6-0.8-6-2.2C46.6,58.7,44.5,59.5,42,59.5z"/>
	<rect x="30.5" y="12.5" class="st4" width="7" height="3"/>
	<path class="st4" d="M30,41.5c1.7,0,3.3,0.4,4.5,1.1c0-0.2,0-0.4,0-0.6c0-3.1,3.3-5.5,7.5-5.5s7.5,2.4,7.5,5.5c0,0.2,0,0.4-0.1,0.6
		c0,0.1,0.1,0.2,0.1,0.4v0.5h0.1c0.6-0.3,1.2-0.5,1.9-0.7V32.5h-13V34c0,0.8-0.7,1.5-1.5,1.5h-6c-0.8,0-1.5-0.7-1.5-1.5v-1.5h-13v11
		h7.7C25.5,42.3,27.6,41.5,30,41.5z"/>
	<path class="st1" d="M31,24.5h6c0.8,0,1.5,0.7,1.5,1.5v3.5h13v-11H39H29H16.5v11h13V26C29.5,25.2,30.2,24.5,31,24.5z"/>
	<rect x="32.5" y="27.5" class="st1" width="3" height="5"/>
	<path class="st6" d="M31,35.5h6c0.8,0,1.5-0.7,1.5-1.5v-1.5v-3V26c0-0.8-0.7-1.5-1.5-1.5h-6c-0.8,0-1.5,0.7-1.5,1.5v3.5v3V34
		C29.5,34.8,30.2,35.5,31,35.5z M32.5,27.5h3v5h-3V27.5z"/>
	<path class="st4" d="M42,53.5c-1.7,0-3.3-0.4-4.5-1.1V53v1c0,1.2,1.8,2.5,4.5,2.5s4.5-1.3,4.5-2.5v-1.6
		C45.3,53.1,43.7,53.5,42,53.5z"/>
	<path class="st4" d="M42,50.5c2.7,0,4.5-1.3,4.5-2.5v-1v-0.6c-1.2,0.7-2.8,1.1-4.5,1.1s-3.3-0.4-4.5-1.1V47v1
		C37.5,49.2,39.3,50.5,42,50.5z"/>
	<path class="st4" d="M30,52.5c-1.7,0-3.3-0.4-4.5-1.1V53c0,1.2,1.8,2.5,4.5,2.5s4.5-1.3,4.5-2.5v-1.6C33.3,52.1,31.7,52.5,30,52.5z
		"/>
	<path class="st1" d="M42,44.5c2.7,0,4.5-1.3,4.5-2.5s-1.8-2.5-4.5-2.5s-4.5,1.3-4.5,2.5S39.3,44.5,42,44.5z"/>
	<path class="st1" d="M30,49.5c2.7,0,4.5-1.3,4.5-2.5s-1.8-2.5-4.5-2.5s-4.5,1.3-4.5,2.5S27.3,49.5,30,49.5z"/>
	<path class="st4" d="M58.5,54v-1.6c-1.2,0.7-2.8,1.1-4.5,1.1s-3.3-0.4-4.5-1.1V54c0,1.2,1.8,2.5,4.5,2.5S58.5,55.2,58.5,54z"/>
	<path class="st5" d="M61.5,48c0-3-3-5.3-7-5.5V31V17c0-0.8-0.7-1.5-1.5-1.5H40.5V11c0-0.8-0.7-1.5-1.5-1.5H29
		c-0.8,0-1.5,0.7-1.5,1.5v4.5H15c-0.8,0-1.5,0.7-1.5,1.5v14v14c0,0.8,0.7,1.5,1.5,1.5h7.5c0,0.2,0,0.3,0,0.5v6
		c0,3.1,3.3,5.5,7.5,5.5c2.2,0,4.1-0.7,5.5-1.7c1.3,1.6,3.7,2.7,6.5,2.7c2.5,0,4.6-0.8,6-2.2c1.4,1.3,3.5,2.2,6,2.2c0,0,0,0,0,0
		c4.2,0,7.5-2.4,7.5-5.5v-2.9V48z M49.5,54v-1.6c1.2,0.7,2.8,1.1,4.5,1.1s3.3-0.4,4.5-1.1V54c0,1.2-1.8,2.5-4.5,2.5
		S49.5,55.2,49.5,54z M42,56.5c-2.7,0-4.5-1.3-4.5-2.5v-1v-0.6c1.2,0.7,2.8,1.1,4.5,1.1s3.3-0.4,4.5-1.1V54
		C46.5,55.2,44.7,56.5,42,56.5z M30,55.5c-2.7,0-4.5-1.3-4.5-2.5v-1.6c1.2,0.7,2.8,1.1,4.5,1.1s3.3-0.4,4.5-1.1V53
		C34.5,54.2,32.7,55.5,30,55.5z M16.5,32.5h13v-3h-13v-11H29h10h12.5v11h-13v3h13v10.3c-0.7,0.2-1.3,0.4-1.9,0.7h-0.1V43
		c0-0.1,0-0.2-0.1-0.4c0-0.2,0.1-0.4,0.1-0.6c0-3.1-3.3-5.5-7.5-5.5s-7.5,2.4-7.5,5.5c0,0.2,0,0.4,0,0.6c-1.3-0.7-2.8-1.1-4.5-1.1
		c-2.4,0-4.5,0.8-5.8,2h-7.7V32.5z M30.5,12.5h7v3h-7V12.5z M37.5,42c0-1.2,1.8-2.5,4.5-2.5s4.5,1.3,4.5,2.5s-1.8,2.5-4.5,2.5
		S37.5,43.2,37.5,42z M37.5,47v-0.6c1.2,0.7,2.8,1.1,4.5,1.1s3.3-0.4,4.5-1.1V47v1c0,1.2-1.8,2.5-4.5,2.5s-4.5-1.3-4.5-2.5V47z
		 M30,44.5c2.7,0,4.5,1.3,4.5,2.5s-1.8,2.5-4.5,2.5s-4.5-1.3-4.5-2.5S27.3,44.5,30,44.5z M58.5,48c0,1.2-1.8,2.5-4.5,2.5
		s-4.5-1.3-4.5-2.5s1.8-2.5,4.5-2.5S58.5,46.8,58.5,48z"/>
	<path class="st1" d="M54,45.5c-2.7,0-4.5,1.3-4.5,2.5s1.8,2.5,4.5,2.5s4.5-1.3,4.5-2.5S56.7,45.5,54,45.5z"/>
</g>
</svg>
