<?xml version="1.0" encoding="utf-8"?>
<!-- Generator: Adobe Illustrator 19.2.1, SVG Export Plug-In . SVG Version: 6.00 Build 0)  -->
<svg version="1.1" id="Layer_1" xmlns="http://www.w3.org/2000/svg" xmlns:xlink="http://www.w3.org/1999/xlink" x="0px" y="0px"
	 width="28px" height="28px" viewBox="0 0 28 28" style="enable-background:new 0 0 28 28;" xml:space="preserve">
<style type="text/css">
	.st0{fill:#034580;}
	.st1{fill:#FFFFFF;}
	.st2{fill:none;}
	.st3{fill:#E3F1F8;}
	.st4{fill:#99D2E8;}
	.st5{fill:#002F5F;}
	.st6{fill:#EB174B;}
	.st7{opacity:0.12;fill-rule:evenodd;clip-rule:evenodd;}
	.st8{fill:#282928;}
</style>
<g>
	<path d="M21.2,4H6.8C5.2,4,4,5.2,4,6.8v14.4C4,22.8,5.2,24,6.8,24h14.4c1.5,0,2.8-1.2,2.8-2.8V6.8C24,5.2,22.8,4,21.2,4z M14,10.1
		c2.2,0,3.9,1.7,3.9,3.9c0,2.1-1.7,3.9-3.9,3.9s-3.9-1.7-3.9-3.9C10.1,11.8,11.8,10.1,14,10.1z M21.8,21.2c0,0.3-0.2,0.6-0.6,0.6
		H6.8c-0.3,0-0.6-0.2-0.6-0.6v-8.9h1.9C8,12.9,7.9,13.4,7.9,14c0,3.4,2.7,6.1,6.1,6.1s6.1-2.7,6.1-6.1c0-0.6-0.1-1.1-0.2-1.7h1.9
		V21.2z M21.8,9.6c0,0.3-0.2,0.5-0.6,0.5h-2.8c-0.3,0-0.5-0.2-0.5-0.5V6.8c0-0.3,0.2-0.6,0.5-0.6h2.8c0.3,0,0.6,0.2,0.6,0.6V9.6z"/>
</g>
</svg>
