<svg id="Layer_1" data-name="Layer 1" xmlns="http://www.w3.org/2000/svg" width="28" height="28" viewBox="0 0 28 28"><title>amway-icons</title><path d="M25.37,6.07a1,1,0,0,0-1.3.56L20.32,16H8V8A5,5,0,0,0,3,3,1,1,0,0,0,3,5,3,3,0,0,1,6,8v9a1,1,0,0,0,1,1H21a1,1,0,0,0,.93-0.63l4-10A1,1,0,0,0,25.37,6.07Z"/><path d="M9.5,19A3.5,3.5,0,1,0,13,22.5,3.5,3.5,0,0,0,9.5,19Zm0,5A1.5,1.5,0,1,1,11,22.5,1.5,1.5,0,0,1,9.5,24Z"/><path d="M18.5,19A3.5,3.5,0,1,0,22,22.5,3.5,3.5,0,0,0,18.5,19Zm0,5A1.5,1.5,0,1,1,20,22.5,1.5,1.5,0,0,1,18.5,24Z"/></svg>