<?xml version="1.0" encoding="utf-8"?>
<!-- Generator: Adobe Illustrator 19.2.1, SVG Export Plug-In . SVG Version: 6.00 Build 0)  -->
<svg version="1.1" id="Layer_1" xmlns="http://www.w3.org/2000/svg" xmlns:xlink="http://www.w3.org/1999/xlink" x="0px" y="0px"
	 width="28px" height="28px" viewBox="0 0 28 28" style="enable-background:new 0 0 28 28;" xml:space="preserve">
<style type="text/css">
	.st0{fill:#034580;}
	.st1{fill:#FFFFFF;}
	.st2{fill:none;}
	.st3{fill:#E3F1F8;}
	.st4{fill:#99D2E8;}
	.st5{fill:#002F5F;}
	.st6{fill:#EB174B;}
	.st7{opacity:0.12;fill-rule:evenodd;clip-rule:evenodd;}
	.st8{fill:#282928;}
</style>
<g>
	<path d="M23.9,4.6c-0.1-0.2-0.3-0.4-0.5-0.5C23.3,4,23.1,4,23,4h-7c-0.6,0-1,0.4-1,1s0.4,1,1,1h4.6l-9.3,9.3c-0.4,0.4-0.4,1,0,1.4
		c0.2,0.2,0.5,0.3,0.7,0.3s0.5-0.1,0.7-0.3L22,7.4V12c0,0.6,0.4,1,1,1s1-0.4,1-1V5C24,4.9,24,4.7,23.9,4.6z"/>
	<path d="M23,17c-0.6,0-1,0.4-1,1v4H6V6h4c0.6,0,1-0.4,1-1s-0.4-1-1-1H5C4.4,4,4,4.4,4,5v18c0,0.6,0.4,1,1,1h18c0.6,0,1-0.4,1-1v-5
		C24,17.4,23.6,17,23,17z"/>
</g>
</svg>
