<?xml version="1.0" encoding="utf-8"?>
<!-- Generator: Adobe Illustrator 19.2.1, SVG Export Plug-In . SVG Version: 6.00 Build 0)  -->
<svg version="1.1" id="Layer_1" xmlns="http://www.w3.org/2000/svg" xmlns:xlink="http://www.w3.org/1999/xlink" x="0px" y="0px"
	 width="28px" height="28px" viewBox="0 0 28 28" style="enable-background:new 0 0 28 28;" xml:space="preserve">
<style type="text/css">
	.st0{fill:#034580;}
	.st1{fill:#FFFFFF;}
	.st2{fill:none;}
	.st3{fill:#E3F1F8;}
	.st4{fill:#99D2E8;}
	.st5{fill:#002F5F;}
	.st6{fill:#EB174B;}
	.st7{opacity:0.12;fill-rule:evenodd;clip-rule:evenodd;}
	.st8{fill:#282928;}
</style>
<g>
	<path d="M25.7,7.7l-5.5-5.5C20,2,19.5,1.9,19.2,2.1c-0.4,0.2-0.6,0.5-0.6,0.9v2.2C13.8,5.7,10,9.7,10,14.7c0,1.4,0.3,2.8,0.9,4
		c0.2,0.4,0.5,0.6,0.9,0.6c0.1,0,0.1,0,0.2,0c0.5-0.1,0.8-0.5,0.8-0.9c0.1-3.3,2.6-6,5.8-6.4v2c0,0.4,0.2,0.8,0.6,0.9
		c0.4,0.2,0.8,0.1,1.1-0.2l5.5-5.5C26.1,8.8,26.1,8.1,25.7,7.7z M20.6,11.5v-0.7c0-0.6-0.5-1-1-1c-3.2,0-6,1.7-7.5,4.2
		c0.3-3.9,3.6-6.9,7.5-6.9c0.5,0,1-0.5,1-1V5.4l3,3L20.6,11.5z"/>
	<path d="M23,17c-0.6,0-1,0.4-1,1v4H6V6h4c0.6,0,1-0.4,1-1s-0.4-1-1-1H5C4.4,4,4,4.4,4,5v18c0,0.6,0.4,1,1,1h18c0.6,0,1-0.4,1-1v-5
		C24,17.4,23.6,17,23,17z"/>
</g>
</svg>
