<?xml version="1.0" encoding="utf-8"?>
<!-- Generator: Adobe Illustrator 19.2.1, SVG Export Plug-In . SVG Version: 6.00 Build 0)  -->
<svg version="1.1" id="Layer_1" xmlns="http://www.w3.org/2000/svg" xmlns:xlink="http://www.w3.org/1999/xlink" x="0px" y="0px"
	 width="28px" height="28px" viewBox="0 0 28 28" style="enable-background:new 0 0 28 28;" xml:space="preserve">
<style type="text/css">
	.st0{fill:#034580;}
	.st1{fill:#FFFFFF;}
	.st2{fill:none;}
	.st3{fill:#E3F1F8;}
	.st4{fill:#99D2E8;}
	.st5{fill:#002F5F;}
	.st6{fill:#EB174B;}
	.st7{opacity:0.12;fill-rule:evenodd;clip-rule:evenodd;}
	.st8{fill:#282928;}
</style>
<path d="M24.9,6.6c-0.1-0.2-0.3-0.4-0.5-0.5C24.3,6,24.1,6,24,6H4C3.9,6,3.7,6,3.6,6.1C3.4,6.2,3.2,6.4,3.1,6.6C3,6.7,3,6.9,3,7v15
	c0,0.5,0.5,1,1,1h20c0.5,0,1-0.5,1-1V7C25,6.9,25,6.7,24.9,6.6z M21.6,8L14,15.6L6.4,8H21.6z M23,21H5V9.4l8.3,8.3
	c0.2,0.2,0.5,0.3,0.7,0.3s0.5-0.1,0.7-0.3L23,9.4V21z"/>
</svg>
