<?xml version="1.0" encoding="utf-8"?>
<!-- Generator: Adobe Illustrator 19.2.1, SVG Export Plug-In . SVG Version: 6.00 Build 0)  -->
<svg version="1.1" id="Layer_1" xmlns="http://www.w3.org/2000/svg" xmlns:xlink="http://www.w3.org/1999/xlink" x="0px" y="0px"
	 width="70px" height="70px" viewBox="0 0 70 70" style="enable-background:new 0 0 70 70;" xml:space="preserve">
<style type="text/css">
	.st0{fill:#034580;}
	.st1{fill:#FFFFFF;}
	.st2{fill:none;}
	.st3{fill:#E3F1F8;}
	.st4{fill:#99D2E8;}
	.st5{fill:#002F5F;}
	.st6{fill:#EB174B;}
	.st7{opacity:0.12;fill-rule:evenodd;clip-rule:evenodd;}
	.st8{fill:#282928;}
</style>
<g>
	<path class="st3" d="M35,17.7l-5.7,9.9c-0.4,0.7-1.3,1-2,0.5c-0.7-0.4-1-1.3-0.5-2l6.5-11.2c0.4-0.7,1.3-1,2-0.5l7.3,4.2
		c0,0,0,0,0.1,0c0,0,0,0,0,0l10,5.8c0,0,0,0,0.1,0l6,3.4l4-6.9c-1-1.9-2.1-3.7-3.5-5.3c-1.4,1.7-3.5,2.6-5.7,2.6
		c-1.3,0-2.6-0.3-3.7-1c-1.7-1-3-2.6-3.5-4.6c-0.5-1.9-0.2-4,0.8-5.7c0.1-0.1,0.2-0.3,0.3-0.4C43.5,4.9,39.4,4,35,4
		C23.9,4,14.2,9.8,8.8,18.5H23c0.8,0,1.5,0.7,1.5,1.5s-0.7,1.5-1.5,1.5H8c-0.3,0-0.6-0.1-0.8-0.2c-0.9,1.8-1.6,3.6-2.1,5.6H20
		c0.8,0,1.5,0.7,1.5,1.5s-0.7,1.5-1.5,1.5H4.4C4.2,31.5,4,33.2,4,35c0,10.4,5.1,19.5,12.9,25.2l22.9-39.7L35,17.7z M24,38.5H13
		c-0.8,0-1.5-0.7-1.5-1.5s0.7-1.5,1.5-1.5h11c0.8,0,1.5,0.7,1.5,1.5S24.8,38.5,24,38.5z"/>
	<path class="st3" d="M59.2,31.4c-0.3,0-0.5-0.1-0.7-0.2l-6.1-3.5L42.4,45l6.1,3.5c0.3,0.2,0.6,0.5,0.7,0.9s0,0.8-0.1,1.1l-7.4,12.9
		c-0.3,0.5-0.8,0.8-1.3,0.8c-0.3,0-0.5-0.1-0.7-0.2c-0.7-0.4-1-1.3-0.5-2l6.7-11.6l-6.1-3.5c-0.1-0.1-0.2-0.2-0.3-0.3
		c-0.2,0-0.3-0.1-0.4-0.2l-7.9-4.6L19.4,61.8C24,64.5,29.3,66,35,66c17.1,0,31-13.9,31-31c0-3.7-0.7-7.3-1.9-10.6l-3.6,6.3
		C60.2,31.1,59.7,31.4,59.2,31.4z"/>
	<path class="st1" d="M51.3,14.6c2.1,1.2,4.9,0.5,6.1-1.7c0.6-1,0.8-2.3,0.4-3.4s-1.1-2.1-2.1-2.7c-0.7-0.4-1.5-0.6-2.3-0.6
		c-0.4,0-0.8,0.1-1.2,0.2c-1.2,0.3-2.1,1.1-2.7,2.1C48.4,10.6,49.1,13.3,51.3,14.6z"/>
	<rect x="31.1" y="28.5" transform="matrix(0.5 -0.866 0.866 0.5 -7.8087 51.9589)" class="st4" width="20" height="8.5"/>
	<path class="st5" d="M46.3,12.6c0.5,1.9,1.8,3.6,3.5,4.6c1.2,0.7,2.5,1,3.7,1c2.1,0,4.2-0.9,5.7-2.6c0.3-0.4,0.6-0.7,0.9-1.2l0,0
		c2.1-3.6,0.8-8.2-2.7-10.2c-1.7-1-3.8-1.3-5.7-0.8c-1.8,0.5-3.3,1.6-4.3,3.1c-0.1,0.1-0.2,0.3-0.3,0.4C46,8.7,45.8,10.7,46.3,12.6z
		 M49.6,8.4c0.6-1,1.6-1.8,2.7-2.1c0.4-0.1,0.8-0.2,1.2-0.2c0.8,0,1.6,0.2,2.3,0.6c1,0.6,1.8,1.6,2.1,2.7s0.2,2.4-0.4,3.4
		c-1.2,2.1-4,2.9-6.1,1.7C49.1,13.3,48.4,10.6,49.6,8.4z"/>
	<path class="st5" d="M66.8,16.7c-0.7-0.4-1.6-0.2-2,0.5L62.6,21l-4,6.9l-6-3.4c0,0,0,0-0.1,0l-10-5.8c0,0,0,0,0,0c0,0,0,0-0.1,0
		l-7.3-4.2c-0.7-0.4-1.6-0.2-2,0.5l-6.5,11.2c-0.4,0.7-0.2,1.6,0.5,2c0.7,0.4,1.6,0.2,2-0.5l5.7-9.9l4.8,2.8L16.9,60.2L14.6,64
		c-0.4,0.7-0.2,1.6,0.5,2c0.2,0.1,0.5,0.2,0.7,0.2c0.5,0,1-0.3,1.3-0.8l2.2-3.8l11.5-19.9l7.9,4.6c0.1,0.1,0.3,0.1,0.4,0.2
		c0.1,0.1,0.2,0.2,0.3,0.3l6.1,3.5L39,61.9c-0.4,0.7-0.2,1.6,0.5,2c0.2,0.1,0.5,0.2,0.7,0.2c0.5,0,1-0.3,1.3-0.8L49,50.6
		c0.2-0.3,0.3-0.8,0.1-1.1s-0.4-0.7-0.7-0.9L42.4,45l10-17.3l6.1,3.5c0.2,0.1,0.5,0.2,0.7,0.2c0.5,0,1-0.3,1.3-0.8l3.6-6.3l3.2-5.6
		C67.8,18.1,67.5,17.1,66.8,16.7z M39.8,43.5l-7.4-4.3l10-17.3l7.4,4.3L39.8,43.5z"/>
	<path class="st6" d="M21.5,28.4c0-0.8-0.7-1.5-1.5-1.5H5.1H3c-0.8,0-1.5,0.7-1.5,1.5s0.7,1.5,1.5,1.5h1.4H20
		C20.8,29.9,21.5,29.2,21.5,28.4z"/>
	<path class="st6" d="M24,35.5H13c-0.8,0-1.5,0.7-1.5,1.5s0.7,1.5,1.5,1.5h11c0.8,0,1.5-0.7,1.5-1.5S24.8,35.5,24,35.5z"/>
	<path class="st6" d="M23,21.5c0.8,0,1.5-0.7,1.5-1.5s-0.7-1.5-1.5-1.5H8.8H8c-0.8,0-1.5,0.7-1.5,1.5c0,0.5,0.3,1,0.7,1.3
		c0.2,0.1,0.5,0.2,0.8,0.2H23z"/>
</g>
</svg>
