<?xml version="1.0" encoding="utf-8"?>
<!-- Generator: Adobe Illustrator 19.2.1, SVG Export Plug-In . SVG Version: 6.00 Build 0)  -->
<svg version="1.1" id="Layer_1" xmlns="http://www.w3.org/2000/svg" xmlns:xlink="http://www.w3.org/1999/xlink" x="0px" y="0px"
	 width="28px" height="28px" viewBox="0 0 28 28" style="enable-background:new 0 0 28 28;" xml:space="preserve">
<style type="text/css">
	.st0{fill:#034580;}
	.st1{fill:#FFFFFF;}
	.st2{fill:none;}
	.st3{fill:#E3F1F8;}
	.st4{fill:#99D2E8;}
	.st5{fill:#002F5F;}
	.st6{fill:#EB174B;}
	.st7{opacity:0.12;fill-rule:evenodd;clip-rule:evenodd;}
	.st8{fill:#282928;}
</style>
<g>
	<path d="M24,7h-5V4c0-0.5-0.5-1-1-1h-8C9.5,3,9,3.5,9,4v3H4C3.5,7,3,7.5,3,8s0.5,1,1,1h2v15c0,0.5,0.5,1,1,1h14c0.5,0,1-0.5,1-1V9
		h2c0.5,0,1-0.5,1-1S24.5,7,24,7z M11,5h6v2h-6V5z M20,23H8V9h12V23z"/>
	<path d="M12,21c0.5,0,1-0.5,1-1v-8c0-0.5-0.5-1-1-1s-1,0.5-1,1v8C11,20.5,11.5,21,12,21z"/>
	<path d="M16,21c0.5,0,1-0.5,1-1v-8c0-0.5-0.5-1-1-1s-1,0.5-1,1v8C15,20.5,15.5,21,16,21z"/>
</g>
</svg>
