<?xml version="1.0" encoding="utf-8"?>
<!-- Generator: Adobe Illustrator 19.2.1, SVG Export Plug-In . SVG Version: 6.00 Build 0)  -->
<svg version="1.1" id="Layer_1" xmlns="http://www.w3.org/2000/svg" xmlns:xlink="http://www.w3.org/1999/xlink" x="0px" y="0px"
	 width="28px" height="28px" viewBox="0 0 28 28" style="enable-background:new 0 0 28 28;" xml:space="preserve">
<style type="text/css">
	.st0{fill:#034580;}
	.st1{fill:#FFFFFF;}
	.st2{fill:none;}
	.st3{fill:#E3F1F8;}
	.st4{fill:#99D2E8;}
	.st5{fill:#002F5F;}
	.st6{fill:#EB174B;}
	.st7{opacity:0.12;fill-rule:evenodd;clip-rule:evenodd;}
	.st8{fill:#282928;}
</style>
<path d="M25.7,24.3l-6-6c1.4-1.7,2.3-3.9,2.3-6.3c0-5.5-4.5-10-10-10S2,6.5,2,12s4.5,10,10,10c2.4,0,4.6-0.9,6.3-2.3l6,6
	c0.2,0.2,0.5,0.3,0.7,0.3s0.5-0.1,0.7-0.3C26.1,25.3,26.1,24.7,25.7,24.3z M12,20c-4.4,0-8-3.6-8-8c0-4.4,3.6-8,8-8s8,3.6,8,8
	C20,16.4,16.4,20,12,20z"/>
</svg>
