<?xml version="1.0" encoding="utf-8"?>
<!-- Generator: Adobe Illustrator 19.2.1, SVG Export Plug-In . SVG Version: 6.00 Build 0)  -->
<svg version="1.1" id="Layer_1" xmlns="http://www.w3.org/2000/svg" xmlns:xlink="http://www.w3.org/1999/xlink" x="0px" y="0px"
	 width="28px" height="28px" viewBox="0 0 28 28" style="enable-background:new 0 0 28 28;" xml:space="preserve">
<style type="text/css">
	.st0{fill:#034580;}
	.st1{fill:#FFFFFF;}
	.st2{fill:none;}
	.st3{fill:#E3F1F8;}
	.st4{fill:#99D2E8;}
	.st5{fill:#002F5F;}
	.st6{fill:#EB174B;}
	.st7{opacity:0.12;fill-rule:evenodd;clip-rule:evenodd;}
	.st8{fill:#282928;}
</style>
<g>
	<path d="M22,15.1l-1.5-1c-0.4-0.3-0.9-0.2-1.3,0.1L17,16.6l-0.6-0.6l-1.4,1.4l1.5,1.3c0.2,0.2,0.4,0.2,0.7,0.2
		c0.3,0,0.5-0.1,0.7-0.3l2.4-2.4l1.9,1.2V20h-9.6l-2,2H23c0.5,0,1-0.5,1-1V8.4l-2,2V15.1z"/>
	<path d="M6,15.4l3-3l1.2,1l1.4-1.4l-2-1.7c-0.4-0.4-1-0.3-1.4,0L6,12.6V8h9.6l2-2H5C4.5,6,4,6.5,4,7v12.6l2-2V15.4z"/>
	<path d="M24.7,3.3C24.5,3.1,24.2,3,23.9,3c-0.3,0-0.6,0.1-0.8,0.3L3.3,23.1c-0.4,0.4-0.4,1.1,0,1.6C3.5,24.9,3.8,25,4.1,25
		c0.3,0,0.6-0.1,0.8-0.3L24.7,4.9C25.1,4.5,25.1,3.8,24.7,3.3z"/>
</g>
</svg>
