<?xml version="1.0" encoding="utf-8"?>
<!-- Generator: Adobe Illustrator 19.2.1, SVG Export Plug-In . SVG Version: 6.00 Build 0)  -->
<svg version="1.1" id="Layer_1" xmlns="http://www.w3.org/2000/svg" xmlns:xlink="http://www.w3.org/1999/xlink" x="0px" y="0px"
	 width="70px" height="70px" viewBox="0 0 70 70" style="enable-background:new 0 0 70 70;" xml:space="preserve">
<style type="text/css">
	.st0{fill:#034580;}
	.st1{fill:#FFFFFF;}
	.st2{fill:none;}
	.st3{fill:#E3F1F8;}
	.st4{fill:#99D2E8;}
	.st5{fill:#002F5F;}
	.st6{fill:#EB174B;}
	.st7{opacity:0.12;fill-rule:evenodd;clip-rule:evenodd;}
	.st8{fill:#282928;}
</style>
<g>
	<path class="st3" d="M35,4c-1.4,0-2.7,0.1-4,0.3c4.6,1.1,8,5.3,8,10.2v0.2c2.3-2.3,5.5-3.7,9-3.7c0.8,0,1.5,0.7,1.5,1.5
		S48.8,14,48,14c-5.1,0-9.3,3.9-9.8,8.9c2.9-1.3,6.1-1.7,9.1-0.9c3.8,1,6.9,3.6,8.7,7.3c2.1,4.4,2,9.6-0.2,14.3l-4.2,9.2
		c-2.3,5-7.5,7.7-12.3,6.5L37,58.6l-2.3,0.6c-0.8,0.2-1.5,0.3-2.3,0.3c-2.3,0-4.6-0.9-6.5-2.4c-1.9,1-4,1.6-6.2,1.6
		c-1.1,0-2.3-0.1-3.4-0.4c-1.1-0.3-2-0.7-3-1.2C18.8,62.6,26.5,66,35,66c17.1,0,31-13.9,31-31C66,17.9,52.1,4,35,4z"/>
	<path class="st3" d="M6.9,42.2c0.2-0.8,1-1.3,1.8-1.1l9.5,2.5l-0.1-0.2c-2.2-4.7-2.3-9.9-0.2-14.3c1.8-3.8,4.9-6.4,8.7-7.3
		c2.8-0.7,5.8-0.5,8.5,0.7c0.1-1.3,0.4-2.5,0.9-3.6h-1.6C28.7,19,24,14.2,24,8.5V6C12.3,10.5,4,21.8,4,35c0,4.5,0.9,8.7,2.6,12.5
		C6.4,45.8,6.5,44,6.9,42.2z"/>
	<path class="st3" d="M27,7v1.5c0,4.1,3.4,7.5,7.5,7.5H36v-1.5c0-4.1-3.4-7.5-7.5-7.5H27z"/>
	<path class="st6" d="M34.5,19h1.6c0.7-1.6,1.6-3.1,2.9-4.3v-0.2c0-4.9-3.4-9.1-8-10.2C30.2,4.1,29.4,4,28.5,4h-3
		C24.7,4,24,4.6,24,5.5V6v2.4C24,14.2,28.7,19,34.5,19z M36,14.5V16h-1.5c-4.1,0-7.5-3.4-7.5-7.5V7h1.5C32.6,7,36,10.3,36,14.5z"/>
	<path class="st4" d="M32.1,47.9c0.2,0.3,0.3,0.8,0.2,1.1c-0.7,2.5-2,4.7-3.8,6.3c1.7,1.1,3.6,1.5,5.5,1l2.7-0.7c0.1,0,0.2,0,0.4,0
		s0.2,0,0.4,0l2.7,0.7c3.4,0.9,7.1-1.2,8.8-4.8l4.2-9.2c1.8-3.8,1.9-8.2,0.2-11.8c-1.4-2.9-3.8-5-6.7-5.7c-2.9-0.7-6-0.2-8.7,1.6
		c-0.5,0.3-1.1,0.3-1.6,0c-2.7-1.8-5.8-2.4-8.7-1.6c-3,0.8-5.4,2.8-6.7,5.7c-1.7,3.5-1.6,7.9,0.2,11.8l1.1,2.4l9.2,2.5
		C31.6,47.3,31.9,47.5,32.1,47.9z M42.5,28.7c0.2-0.8,1-1.3,1.8-1.1c2.4,0.6,4.2,2.2,5.3,4.5c1.3,2.6,1.2,5.8-0.1,8.6
		c-0.3,0.5-0.8,0.9-1.4,0.9c-0.2,0-0.4,0-0.6-0.1c-0.8-0.4-1.1-1.2-0.7-2c0.9-2,1-4.2,0.1-6c-0.7-1.5-1.9-2.5-3.3-2.8
		C42.8,30.3,42.3,29.5,42.5,28.7z"/>
	<path class="st5" d="M43.6,30.5c1.5,0.4,2.7,1.4,3.3,2.8c0.9,1.8,0.8,4.1-0.1,6c-0.4,0.7,0,1.6,0.7,2c0.2,0.1,0.4,0.1,0.6,0.1
		c0.6,0,1.1-0.3,1.4-0.9c1.3-2.8,1.4-5.9,0.1-8.6c-1.1-2.3-3-3.9-5.3-4.5c-0.8-0.2-1.6,0.3-1.8,1.1C42.3,29.5,42.8,30.3,43.6,30.5z"
		/>
	<path class="st1" d="M17,55.4c4.9,1.3,9.9-1.2,11.9-5.7L9.6,44.5c-0.2,2.1,0.2,4.3,1.3,6.2C12.2,53,14.4,54.7,17,55.4z M15,49.1
		c0.2-0.8,1-1.3,1.8-1.1l3.6,1c0.8,0.2,1.3,1,1.1,1.8c-0.2,0.7-0.8,1.1-1.4,1.1c-0.1,0-0.3,0-0.4-0.1l-3.6-1
		C15.2,50.7,14.8,49.9,15,49.1z"/>
	<path class="st5" d="M19.6,58.7c2.2,0,4.3-0.6,6.2-1.6c1.9,1.5,4.2,2.4,6.5,2.4c0.8,0,1.5-0.1,2.3-0.3l2.3-0.6l2.4,0.6
		c4.8,1.2,9.9-1.5,12.3-6.5l4.2-9.2c2.2-4.7,2.3-9.9,0.2-14.3c-1.8-3.8-4.9-6.4-8.7-7.3c-3-0.8-6.1-0.4-9.1,0.9
		c0.5-5,4.7-8.9,9.8-8.9c0.8,0,1.5-0.7,1.5-1.5S48.8,11,48,11c-3.5,0-6.7,1.4-9,3.7c-1.2,1.2-2.2,2.7-2.9,4.3
		c-0.5,1.1-0.8,2.4-0.9,3.6c-2.8-1.1-5.7-1.4-8.5-0.7c-3.8,1-6.9,3.6-8.7,7.3c-2.1,4.4-2,9.6,0.2,14.3l0.1,0.2l-9.5-2.5
		C8,41,7.2,41.4,6.9,42.2c-0.5,1.7-0.6,3.5-0.3,5.3c0.2,1.6,0.8,3.2,1.6,4.7c1.2,2.1,2.9,3.7,5,4.9c0.9,0.5,1.9,0.9,3,1.2
		C17.3,58.6,18.5,58.7,19.6,58.7z M9.6,44.5l19.3,5.2c-2,4.5-7,7-11.9,5.7c-2.6-0.7-4.8-2.4-6.1-4.7C9.8,48.8,9.3,46.6,9.6,44.5z
		 M20.9,42.3c-1.8-3.8-1.9-8.2-0.2-11.8c1.4-2.9,3.8-5,6.7-5.7c2.9-0.7,6-0.2,8.7,1.6c0.5,0.3,1.1,0.3,1.6,0
		c2.7-1.8,5.8-2.4,8.7-1.6c3,0.8,5.4,2.8,6.7,5.7c1.7,3.5,1.6,7.9-0.2,11.8l-4.2,9.2c-1.7,3.7-5.4,5.7-8.8,4.8l-2.7-0.7
		c-0.1,0-0.2,0-0.4,0s-0.2,0-0.4,0l-2.7,0.7c-1.9,0.5-3.8,0.1-5.5-1c1.8-1.6,3.2-3.8,3.8-6.3c0.1-0.4,0-0.8-0.2-1.1
		c-0.2-0.3-0.5-0.6-0.9-0.7L22,44.7L20.9,42.3z"/>
	<path class="st5" d="M16,50.9l3.6,1c0.1,0,0.3,0.1,0.4,0.1c0.7,0,1.3-0.4,1.4-1.1c0.2-0.8-0.3-1.6-1.1-1.8l-3.6-1
		c-0.8-0.2-1.6,0.3-1.8,1.1C14.8,49.9,15.2,50.7,16,50.9z"/>
</g>
</svg>
