<?xml version="1.0" encoding="utf-8"?>
<!-- Generator: Adobe Illustrator 19.2.1, SVG Export Plug-In . SVG Version: 6.00 Build 0)  -->
<svg version="1.1" id="Layer_1" xmlns="http://www.w3.org/2000/svg" xmlns:xlink="http://www.w3.org/1999/xlink" x="0px" y="0px"
	 width="28px" height="28px" viewBox="0 0 28 28" style="enable-background:new 0 0 28 28;" xml:space="preserve">
<style type="text/css">
	.st0{fill:#034580;}
	.st1{fill:#FFFFFF;}
	.st2{fill:none;}
	.st3{fill:#E3F1F8;}
	.st4{fill:#99D2E8;}
	.st5{fill:#002F5F;}
	.st6{fill:#EB174B;}
	.st7{opacity:0.12;fill-rule:evenodd;clip-rule:evenodd;}
	.st8{fill:#282928;}
</style>
<g>
	<path d="M8,12c-1.2,0-2.3,0.4-3.1,1.1C5,11.7,5.4,10,6.4,8.8C7.5,7.6,9,7,11,7c0.5,0,1-0.5,1-1s-0.5-1-1-1C8.4,5,6.3,5.9,4.9,7.6
		C1.9,11.1,3,16.9,3,17.2c0,0,0,0,0,0C3,19.9,5.3,22,8,22c2.8,0,5-2.2,5-5S10.8,12,8,12z M8,20c-1.7,0-3-1.4-3-3c0-1.7,1.3-3,3-3
		s3,1.3,3,3C11,18.6,9.7,20,8,20z"/>
	<path d="M20,12c-1.2,0-2.3,0.4-3.1,1.1c0.1-1.5,0.5-3.1,1.5-4.3C19.5,7.6,21,7,23,7c0.5,0,1-0.5,1-1s-0.5-1-1-1
		c-2.6,0-4.7,0.9-6.1,2.6c-2.9,3.5-1.9,9.4-1.9,9.6c0,0,0,0,0,0c0,2.7,2.3,4.8,5,4.8c2.8,0,5-2.2,5-5S22.8,12,20,12z M20,20
		c-1.7,0-3-1.4-3-3c0-1.7,1.3-3,3-3s3,1.3,3,3C23,18.6,21.7,20,20,20z"/>
</g>
</svg>
