<?xml version="1.0" encoding="utf-8"?>
<!-- Generator: Adobe Illustrator 19.2.1, SVG Export Plug-In . SVG Version: 6.00 Build 0)  -->
<svg version="1.1" id="Layer_1" xmlns="http://www.w3.org/2000/svg" xmlns:xlink="http://www.w3.org/1999/xlink" x="0px" y="0px"
	 width="28px" height="28px" viewBox="0 0 28 28" style="enable-background:new 0 0 28 28;" xml:space="preserve">
<style type="text/css">
	.st0{fill:#034580;}
	.st1{fill:#FFFFFF;}
	.st2{fill:none;}
	.st3{fill:#E3F1F8;}
	.st4{fill:#99D2E8;}
	.st5{fill:#002F5F;}
	.st6{fill:#EB174B;}
	.st7{opacity:0.12;fill-rule:evenodd;clip-rule:evenodd;}
	.st8{fill:#282928;}
</style>
<path class="st0" d="M7.7,11.7L13,6.4V24c0,0.6,0.4,1,1,1s1-0.4,1-1V6.4l5.3,5.3c0.2,0.2,0.5,0.3,0.7,0.3s0.5-0.1,0.7-0.3c0.4-0.4,0.4-1,0-1.4
	l-7-7c-0.1-0.1-0.2-0.2-0.3-0.2c-0.2-0.1-0.5-0.1-0.8,0c-0.1,0.1-0.2,0.1-0.3,0.2l-7,7c-0.4,0.4-0.4,1,0,1.4S7.3,12.1,7.7,11.7z"/>
</svg>
