<?xml version="1.0" encoding="utf-8"?>
<!-- Generator: Adobe Illustrator 19.2.1, SVG Export Plug-In . SVG Version: 6.00 Build 0)  -->
<svg version="1.1" id="Layer_1" xmlns="http://www.w3.org/2000/svg" xmlns:xlink="http://www.w3.org/1999/xlink" x="0px" y="0px"
	 width="28px" height="28px" viewBox="0 0 28 28" style="enable-background:new 0 0 28 28;" xml:space="preserve">
<style type="text/css">
	.st0{fill:#034580;}
	.st1{fill:#FFFFFF;}
	.st2{fill:none;}
	.st3{fill:#E3F1F8;}
	.st4{fill:#99D2E8;}
	.st5{fill:#002F5F;}
	.st6{fill:#EB174B;}
	.st7{opacity:0.12;fill-rule:evenodd;clip-rule:evenodd;}
	.st8{fill:#282928;}
</style>
<g>
	<path d="M21,21H5V9h6.8l2-2H4C3.5,7,3,7.5,3,8v14c0,0.5,0.5,1,1,1h18c0.5,0,1-0.5,1-1v-9.8l-2,2V21z"/>
	<path d="M24.7,6.3l-3-3C21.5,3.1,21.3,3,21,3s-0.5,0.1-0.7,0.3l-9,9c-0.1,0.1-0.2,0.3-0.3,0.5l-1,4c-0.1,0.3,0,0.7,0.3,0.9
		c0.2,0.2,0.5,0.3,0.7,0.3c0.1,0,0.2,0,0.2,0l4-1c0.2,0,0.3-0.1,0.5-0.3l9-9C25.1,7.3,25.1,6.7,24.7,6.3z M14.5,15.1l-2.1,0.5
		l0.5-2.1L21,5.4L22.6,7L14.5,15.1z"/>
</g>
</svg>
