<?xml version="1.0" encoding="utf-8"?>
<!-- Generator: Adobe Illustrator 19.2.1, SVG Export Plug-In . SVG Version: 6.00 Build 0)  -->
<svg version="1.1" id="Layer_1" xmlns="http://www.w3.org/2000/svg" xmlns:xlink="http://www.w3.org/1999/xlink" x="0px" y="0px"
	 width="28px" height="28px" viewBox="0 0 28 28" style="enable-background:new 0 0 28 28;" xml:space="preserve">
<style type="text/css">
	.st0{fill:#034580;}
	.st1{fill:#FFFFFF;}
	.st2{fill:none;}
	.st3{fill:#E3F1F8;}
	.st4{fill:#99D2E8;}
	.st5{fill:#002F5F;}
	.st6{fill:#EB174B;}
	.st7{opacity:0.12;fill-rule:evenodd;clip-rule:evenodd;}
	.st8{fill:#282928;}
</style>
<g>
	<path d="M21.7,8.4c-2-2-5.2-2-7.2,0C14.3,8.6,14.2,8.8,14,9c-0.2-0.2-0.3-0.4-0.5-0.5c-2-2-5.2-2-7.2,0c-2,2-2,5.3-0.1,7.3l7,7
		c0.2,0.2,0.5,0.3,0.7,0.3s0.5-0.1,0.7-0.3l7-7C23.7,13.8,23.6,10.4,21.7,8.4z M20.3,14.3L14,20.6l-6.3-6.3c-1.2-1.2-1.2-3.2,0-4.4
		C8.4,9.2,9.2,9,9.9,9c0.8,0,1.6,0.3,2.2,0.9c0.6,0.6,0.9,1.4,0.9,2.2c0,0.5,0.5,1,1,1s1-0.5,1-1c0-0.8,0.3-1.6,0.9-2.2
		c1.2-1.2,3.1-1.2,4.3,0C21.5,11.1,21.5,13.1,20.3,14.3z"/>
</g>
</svg>
