<?xml version="1.0" encoding="utf-8"?>
<!-- Generator: Adobe Illustrator 19.2.1, SVG Export Plug-In . SVG Version: 6.00 Build 0)  -->
<svg version="1.1" id="Layer_1" xmlns="http://www.w3.org/2000/svg" xmlns:xlink="http://www.w3.org/1999/xlink" x="0px" y="0px"
	 width="70px" height="70px" viewBox="0 0 70 70" style="enable-background:new 0 0 70 70;" xml:space="preserve">
<style type="text/css">
	.st0{fill:#034580;}
	.st1{fill:#FFFFFF;}
	.st2{fill:none;}
	.st3{fill:#E3F1F8;}
	.st4{fill:#99D2E8;}
	.st5{fill:#002F5F;}
	.st6{fill:#EB174B;}
	.st7{opacity:0.12;fill-rule:evenodd;clip-rule:evenodd;}
	.st8{fill:#282928;}
</style>
<g>
	<path class="st3" d="M21.3,11.8c4.1,0,7.9,1.6,10.8,4.5c1.2,1.2,2.2,2.6,3,4.2c0.1-0.1,0.1-0.3,0.2-0.4c0.1-0.1,0.1-0.2,0.2-0.3
		c0.2-0.3,0.4-0.6,0.5-0.9c0.1-0.1,0.1-0.2,0.2-0.3c0.2-0.3,0.5-0.6,0.7-0.9c0.1-0.1,0.1-0.1,0.2-0.2c0.3-0.4,0.6-0.7,1-1.1
		c2.9-2.9,6.7-4.5,10.8-4.5c0,0,0,0,0,0c0,0,0,0,0,0c4.1,0,7.9,1.6,10.8,4.5c0.3,0.3,0.5,0.6,0.8,0.9C54.7,9.2,45.5,4,35,4
		C24.6,4,15.3,9.2,9.7,17.1c0.2-0.3,0.5-0.6,0.8-0.9C13.4,13.3,17.2,11.8,21.3,11.8z"/>
	<path class="st3" d="M62.1,20c1.1,2.3,1.6,5,1.4,7.9c-0.1,1-0.2,2-0.4,2.9l0,0c-0.1,0.4-0.2,0.9-0.3,1.3c0,0.1-0.1,0.3-0.1,0.4
		c-0.1,0.3-0.2,0.6-0.3,0.9c-0.1,0.2-0.2,0.5-0.3,0.7c-0.1,0.2-0.2,0.4-0.3,0.6c-0.1,0.3-0.3,0.6-0.4,0.9c-0.1,0.1-0.2,0.3-0.2,0.4
		c-0.2,0.3-0.4,0.7-0.6,1c-0.1,0.1-0.1,0.2-0.2,0.3c-0.2,0.3-0.5,0.7-0.7,1c-0.1,0.1-0.1,0.2-0.2,0.2c-0.3,0.3-0.5,0.6-0.8,0.9
		L36.1,61.8c-0.3,0.3-0.7,0.4-1.1,0.4c0,0,0,0,0,0l0,0c0,0,0,0,0,0c-0.2,0-0.4,0-0.5-0.1c0,0,0,0,0,0c-0.2-0.1-0.3-0.2-0.4-0.3
		c0,0,0,0-0.1,0L11.4,39.3c-2.9-2.9-4.7-7-5-11.5C6.3,25,6.8,22.3,7.9,20C5.4,24.4,4,29.6,4,35c0,17.1,13.9,31,31,31s31-13.9,31-31
		C66,29.5,64.6,24.4,62.1,20z"/>
	<path class="st4" d="M13.6,37.2l19.9,19.9v-19l-1.7-2.6L28.2,40c-0.3,0.3-0.7,0.5-1.2,0.5h-6c-0.8,0-1.5-0.7-1.5-1.5
		s0.7-1.5,1.5-1.5h5.3l4.6-5.5c0.3-0.4,0.8-0.6,1.2-0.5c0.5,0,0.9,0.3,1.2,0.7l0.2,0.4v-5.5c0,0,0,0,0,0c0-3.3-1.3-6.4-3.6-8.7
		c-2.3-2.3-5.4-3.6-8.7-3.6s-6.3,1.3-8.7,3.6C8.1,22.9,8.6,32.2,13.6,37.2z"/>
	<path class="st5" d="M6.5,27.9c0.3,4.4,2.1,8.6,5,11.5l22.5,22.5c0,0,0,0,0.1,0c0.1,0.1,0.3,0.2,0.4,0.3c0,0,0,0,0,0
		c0.2,0.1,0.4,0.1,0.5,0.1c0,0,0,0,0,0l0,0c0,0,0,0,0,0c0.4,0,0.8-0.2,1.1-0.4l22.5-22.5c0.3-0.3,0.5-0.6,0.8-0.9
		c0.1-0.1,0.2-0.2,0.2-0.2c0.3-0.3,0.5-0.6,0.7-1c0.1-0.1,0.1-0.2,0.2-0.3c0.2-0.3,0.4-0.7,0.6-1c0.1-0.1,0.2-0.3,0.2-0.4
		c0.2-0.3,0.3-0.6,0.4-0.9c0.1-0.2,0.2-0.4,0.3-0.6c0.1-0.2,0.2-0.5,0.3-0.7c0.1-0.3,0.2-0.6,0.3-0.9c0-0.1,0.1-0.3,0.1-0.4
		c0.1-0.4,0.2-0.8,0.3-1.3l0,0c0.2-1,0.4-1.9,0.4-2.9c0.2-2.9-0.3-5.6-1.4-7.9c-0.4-0.8-0.9-1.6-1.4-2.4c-0.1-0.2-0.2-0.3-0.4-0.5
		c-0.2-0.3-0.5-0.6-0.8-0.9c-2.9-2.9-6.7-4.5-10.8-4.5c0,0,0,0,0,0c0,0,0,0,0,0c-4.1,0-7.9,1.6-10.8,4.5c-0.3,0.3-0.7,0.7-1,1.1
		c-0.1,0.1-0.1,0.1-0.2,0.2c-0.2,0.3-0.5,0.6-0.7,0.9c-0.1,0.1-0.1,0.2-0.2,0.3c-0.2,0.3-0.4,0.6-0.5,0.9c-0.1,0.1-0.1,0.2-0.2,0.3
		c-0.1,0.1-0.1,0.3-0.2,0.4c-0.7-1.5-1.7-2.9-3-4.2c-2.9-2.9-6.7-4.5-10.8-4.5s-7.9,1.6-10.8,4.5c-0.3,0.3-0.5,0.6-0.8,0.9
		C9,18,8.4,18.9,7.9,20C6.8,22.3,6.3,25,6.5,27.9z M21.3,14.8c3.3,0,6.3,1.3,8.7,3.6c2.3,2.3,3.6,5.4,3.6,8.7c0,0,0,0,0,0v5.5l3,4.7
		V27c0-3.3,1.3-6.4,3.6-8.7c2.3-2.3,5.4-3.6,8.7-3.6s6.3,1.3,8.7,3.6c4.5,4.5,4,13.8-1,18.8L36.5,57.1V42.9l-3-4.7v19L13.6,37.2
		c-5-5-5.5-14.3-1-18.8C14.9,16,18,14.8,21.3,14.8z"/>
	<path class="st1" d="M42.8,37c0.3-0.3,0.7-0.5,1.2-0.5h6c0.8,0,1.5,0.7,1.5,1.5s-0.7,1.5-1.5,1.5h-5.3L40.2,45
		c-0.3,0.3-0.7,0.5-1.2,0.5c0,0-0.1,0-0.1,0c-0.5,0-0.9-0.3-1.2-0.7l-1.2-1.9v14.3l19.9-19.9c5-5,5.5-14.3,1-18.8
		c-2.3-2.3-5.4-3.6-8.7-3.6s-6.3,1.3-8.7,3.6c-2.3,2.3-3.6,5.4-3.6,8.7v10.3l2.7,4.2L42.8,37z M42.9,21.1c3.1-3.1,8.1-3.1,11.2,0
		c1.6,1.6,2.4,4,2,6.7c-0.1,0.8-0.7,1.3-1.5,1.3c-0.1,0-0.1,0-0.2,0c-0.8-0.1-1.4-0.9-1.3-1.7c0.2-1.7-0.2-3.2-1.2-4.2
		c-1.9-1.9-5.1-1.9-7,0c-0.6,0.6-1.5,0.6-2.1,0C42.4,22.6,42.4,21.7,42.9,21.1z"/>
	<path class="st5" d="M45.1,23.2c1.9-1.9,5.1-1.9,7,0c1,1,1.4,2.5,1.2,4.2c-0.1,0.8,0.5,1.6,1.3,1.7c0.1,0,0.1,0,0.2,0
		c0.7,0,1.4-0.6,1.5-1.3c0.3-2.6-0.4-5-2-6.7c-3.1-3.1-8.1-3.1-11.2,0c-0.6,0.6-0.6,1.5,0,2.1C43.5,23.8,44.5,23.8,45.1,23.2z"/>
	<path class="st6" d="M32.1,31.5c-0.5,0-0.9,0.2-1.2,0.5l-4.6,5.5H21c-0.8,0-1.5,0.7-1.5,1.5s0.7,1.5,1.5,1.5h6
		c0.4,0,0.9-0.2,1.2-0.5l3.7-4.4l1.7,2.6l3,4.7l1.2,1.9c0.3,0.4,0.7,0.7,1.2,0.7c0,0,0.1,0,0.1,0c0.4,0,0.9-0.2,1.2-0.5l4.6-5.5H50
		c0.8,0,1.5-0.7,1.5-1.5s-0.7-1.5-1.5-1.5h-6c-0.4,0-0.9,0.2-1.2,0.5l-3.7,4.4l-2.7-4.2l-3-4.7l-0.2-0.4
		C33,31.8,32.6,31.5,32.1,31.5z"/>
</g>
</svg>
