<?xml version="1.0" encoding="utf-8"?>
<!-- Generator: Adobe Illustrator 19.2.1, SVG Export Plug-In . SVG Version: 6.00 Build 0)  -->
<svg version="1.1" id="Layer_1" xmlns="http://www.w3.org/2000/svg" xmlns:xlink="http://www.w3.org/1999/xlink" x="0px" y="0px"
	 width="28px" height="28px" viewBox="0 0 28 28" style="enable-background:new 0 0 28 28;" xml:space="preserve">
<style type="text/css">
	.st0{fill:#034580;}
	.st1{fill:#FFFFFF;}
	.st2{fill:none;}
	.st3{fill:#E3F1F8;}
	.st4{fill:#99D2E8;}
	.st5{fill:#002F5F;}
	.st6{fill:#EB174B;}
	.st7{opacity:0.12;fill-rule:evenodd;clip-rule:evenodd;}
	.st8{fill:#282928;}
</style>
<g>
	<path d="M24.5,11.4c-0.1-0.4-0.4-0.6-0.8-0.7l-6.1-0.9l-2.7-5.5c-0.3-0.7-1.5-0.7-1.8,0l-2.7,5.5l-6.1,0.9c-0.4,0-0.7,0.3-0.8,0.7
		c-0.1,0.4,0,0.8,0.2,1l4.4,4.3l-1,6c-0.1,0.4,0.1,0.8,0.4,1c0.3,0.2,0.7,0.3,1,0.1l5.4-2.8l5.4,2.8c0.2,0.1,0.3,0.1,0.5,0.1
		c0.2,0,0.4-0.1,0.6-0.2c0.3-0.2,0.5-0.6,0.4-1l-1-6l4.4-4.3C24.5,12.2,24.6,11.8,24.5,11.4z M18.1,15.6c-0.2,0.2-0.3,0.6-0.3,0.9
		l0.8,4.6l-4.1-2.2c-0.1-0.1-0.3-0.1-0.5-0.1s-0.3,0-0.5,0.1l-4.1,2.2l0.8-4.6c0.1-0.3,0-0.7-0.3-0.9l-3.3-3.2l4.6-0.7
		c0.3,0,0.6-0.2,0.8-0.5L14,7l2,4.1c0.1,0.3,0.4,0.5,0.8,0.5l4.6,0.7L18.1,15.6z"/>
</g>
</svg>
