<?xml version="1.0" encoding="utf-8"?>
<!-- Generator: Adobe Illustrator 19.2.1, SVG Export Plug-In . SVG Version: 6.00 Build 0)  -->
<svg version="1.1" id="Layer_1" xmlns="http://www.w3.org/2000/svg" xmlns:xlink="http://www.w3.org/1999/xlink" x="0px" y="0px"
	 width="28px" height="28px" viewBox="0 0 28 28" style="enable-background:new 0 0 28 28;" xml:space="preserve">
<style type="text/css">
	.st0{fill:#034580;}
	.st1{fill:#FFFFFF;}
	.st2{fill:none;}
	.st3{fill:#E3F1F8;}
	.st4{fill:#99D2E8;}
	.st5{fill:#002F5F;}
	.st6{fill:#EB174B;}
	.st7{opacity:0.12;fill-rule:evenodd;clip-rule:evenodd;}
	.st8{fill:#282928;}
</style>
<g>
	<path class="st2" d="M9,23h10v-4H9V23z M13,20h2v2h-2V20z"/>
	<rect x="9" y="9" class="st2" width="10" height="8"/>
	<rect x="9" y="5" class="st2" width="10" height="2"/>
	<path d="M20,3H8C7.4,3,7,3.4,7,4v20c0,0.6,0.4,1,1,1h12c0.6,0,1-0.4,1-1V4C21,3.4,20.6,3,20,3z M19,23H9v-4h10V23z M19,17H9V9h10
		V17z M19,7H9V5h10V7z"/>
	<rect x="13" y="20" width="2" height="2"/>
</g>
</svg>
