<?xml version="1.0" encoding="utf-8"?>
<!-- Generator: Adobe Illustrator 19.2.1, SVG Export Plug-In . SVG Version: 6.00 Build 0)  -->
<svg version="1.1" id="Layer_1" xmlns="http://www.w3.org/2000/svg" xmlns:xlink="http://www.w3.org/1999/xlink" x="0px" y="0px"
	 width="28px" height="28px" viewBox="0 0 28 28" style="enable-background:new 0 0 28 28;" xml:space="preserve">
<style type="text/css">
	.st0{fill:#034580;}
	.st1{fill:#FFFFFF;}
	.st2{fill:none;}
	.st3{fill:#E3F1F8;}
	.st4{fill:#99D2E8;}
	.st5{fill:#002F5F;}
	.st6{fill:#EB174B;}
	.st7{opacity:0.12;fill-rule:evenodd;clip-rule:evenodd;}
	.st8{fill:#282928;}
</style>
<path class="st2" d="M15,15h-2c-4.5,0.1-7.9,2.6-8,4.9c0.1,0.2,1.3,2.1,9,2.1c7.7,0,8.9-1.9,9-2.1C22.9,17.6,19.5,15.1,15,15z"/>
<path d="M18.1,13.4C19.3,12.3,20,10.7,20,9c0-3.3-2.7-6-6-6S8,5.7,8,9c0,1.7,0.7,3.3,1.9,4.4C6,14.3,3,17,3,20c0,0.7,0.6,4,11,4
	s11-3.3,11-4C25,17,22,14.3,18.1,13.4z M14,5c2.2,0,4,1.8,4,4c0,2.2-1.8,4-4,4s-4-1.8-4-4C10,6.8,11.8,5,14,5z M14,22
	c-7.7,0-8.9-1.9-9-2.1c0.1-2.3,3.5-4.8,8-4.9h2c4.5,0.1,7.9,2.6,8,4.9C22.9,20.1,21.8,22,14,22z"/>
</svg>
