<?xml version="1.0" encoding="utf-8"?>
<!-- Generator: Adobe Illustrator 19.2.1, SVG Export Plug-In . SVG Version: 6.00 Build 0)  -->
<svg version="1.1" id="Layer_1" xmlns="http://www.w3.org/2000/svg" xmlns:xlink="http://www.w3.org/1999/xlink" x="0px" y="0px"
	 width="70px" height="70px" viewBox="0 0 70 70" style="enable-background:new 0 0 70 70;" xml:space="preserve">
<style type="text/css">
	.st0{fill:#034580;}
	.st1{fill:#FFFFFF;}
	.st2{fill:none;}
	.st3{fill:#E3F1F8;}
	.st4{fill:#99D2E8;}
	.st5{fill:#002F5F;}
	.st6{fill:#EB174B;}
	.st7{opacity:0.12;fill-rule:evenodd;clip-rule:evenodd;}
	.st8{fill:#282928;}
</style>
<g>
	<path class="st3" d="M50.5,61.8c0.6-0.4,1.3-0.8,1.9-1.2l-1.3-0.2L50.5,61.8z"/>
	<path class="st3" d="M17.6,60.7c0.6,0.4,1.2,0.8,1.9,1.2l-0.6-1.3L17.6,60.7z"/>
	<path class="st3" d="M25.3,64.5c3,1,6.3,1.5,9.7,1.5s6.6-0.5,9.7-1.5L35,47.7L25.3,64.5z"/>
	<path class="st3" d="M21.2,41.4c-0.2-0.7-0.7-1.3-1.3-1.6l-3.5-2.1c-1.4-0.8-2.4-2.2-2.7-3.8c-0.4-1.6-0.1-3.3,0.8-4.6l2.3-3.5
		c0.4-0.6,0.6-1.3,0.5-2.1l-0.6-4.2c-0.2-1.6,0.2-3.3,1.3-4.6c1-1.3,2.5-2,4.1-2.2l4.1-0.4c0.7-0.1,1.3-0.4,1.8-0.9l2.8-3
		c1.1-1.2,2.6-1.9,4.3-1.9s3.2,0.7,4.3,1.9l2.8,3c0.5,0.5,1.1,0.8,1.8,0.9l4.1,0.4c1.6,0.1,3,0.9,4.1,2.2c1,1.3,1.5,2.9,1.3,4.6
		l-0.6,4.2c-0.1,0.7,0.1,1.5,0.5,2.1l2.3,3.5c0.9,1.4,1.2,3,0.8,4.6c-0.4,1.6-1.3,2.9-2.7,3.8l-3.5,2.1c-0.6,0.4-1.1,1-1.3,1.6
		l-0.1,0.2l8.6,14.9C62.7,50.9,66,43.3,66,35C66,17.9,52.1,4,35,4S4,17.9,4,35c0,8.3,3.3,15.9,8.6,21.5l8.6-14.9L21.2,41.4z"/>
	<path class="st1" d="M47.5,45.4c-0.5,1.5-1.6,2.8-3.1,3.5c-1.5,0.7-3.1,0.8-4.6,0.2l-0.8-0.3L47,62.4l1.8-4.1
		c0.3-0.6,0.9-1,1.6-0.9l4.5,0.5L47.5,45.4z"/>
	<path class="st5" d="M57.4,56.5l-8.6-14.9l0.1-0.2c0.2-0.7,0.7-1.3,1.3-1.6l3.5-2.1c1.4-0.8,2.4-2.2,2.7-3.8
		c0.4-1.6,0.1-3.3-0.8-4.6l-2.3-3.5c-0.4-0.6-0.6-1.3-0.5-2.1l0.6-4.2c0.2-1.6-0.2-3.3-1.3-4.6c-1-1.3-2.5-2-4.1-2.2l-4.1-0.4
		c-0.7-0.1-1.3-0.4-1.8-0.9l-2.8-3c-1.1-1.2-2.6-1.9-4.3-1.9s-3.2,0.7-4.3,1.9l-2.8,3c-0.5,0.5-1.1,0.8-1.8,0.9L22,12.7
		c-1.6,0.1-3,0.9-4.1,2.2c-1,1.3-1.5,2.9-1.3,4.6l0.6,4.2c0.1,0.7-0.1,1.5-0.5,2.1l-2.3,3.5c-0.9,1.4-1.2,3-0.8,4.6
		c0.4,1.6,1.3,2.9,2.7,3.8l3.5,2.1c0.6,0.4,1.1,1,1.3,1.6l0.1,0.2l-8.6,14.9L11.1,59c-0.3,0.5-0.3,1.1,0,1.6
		c0.3,0.5,0.9,0.7,1.4,0.7l5-0.6l1.3-0.2l0.6,1.3l1.9,4.5c0.2,0.5,0.7,0.9,1.3,0.9c0,0,0.1,0,0.1,0c0.5,0,1-0.3,1.3-0.8l1.2-2.1
		L35,47.7l9.7,16.7l1.2,2.1c0.3,0.5,0.8,0.8,1.3,0.8c0,0,0.1,0,0.1,0c0.6,0,1.1-0.4,1.3-0.9l1.9-4.5l0.6-1.3l1.3,0.2l5,0.6
		c0.6,0.1,1.1-0.2,1.4-0.7c0.3-0.5,0.3-1.1,0-1.6L57.4,56.5z M48.7,58.3L47,62.4l-7.9-13.6l0.8,0.3c1.5,0.6,3.2,0.5,4.6-0.2
		c1.4-0.7,2.6-2,3.1-3.5l7.2,12.5l-4.5-0.5C49.6,57.3,49,57.7,48.7,58.3z M19.9,57.4c-0.1,0-0.1,0-0.2,0l-4.5,0.5l7.2-12.5
		c0.5,1.5,1.6,2.8,3.1,3.5c0.8,0.4,1.7,0.6,2.5,0.6c0.7,0,1.4-0.1,2.1-0.4l0.8-0.3L23,62.4l-1.8-4.1C21,57.7,20.5,57.4,19.9,57.4z
		 M21.5,37.1L17.9,35c-0.7-0.4-1.2-1.1-1.3-1.9c-0.2-0.8,0-1.6,0.4-2.3l2.3-3.5c0.8-1.2,1.1-2.7,0.9-4.1L19.6,19
		c-0.1-0.8,0.1-1.7,0.6-2.3c0.5-0.6,1.2-1,2-1.1l4.1-0.4c1.4-0.1,2.8-0.8,3.8-1.8l2.8-3c1.1-1.2,3.1-1.2,4.2,0l2.8,3
		c1,1.1,2.3,1.7,3.8,1.8l4.1,0.4c0.8,0.1,1.5,0.5,2,1.1c0.5,0.7,0.7,1.5,0.6,2.3l-0.6,4.2c-0.2,1.4,0.1,2.9,0.9,4.1l2.3,3.5
		c0.5,0.7,0.6,1.5,0.4,2.3c-0.2,0.8-0.7,1.5-1.3,1.9l-3.5,2.1c-1.2,0.7-2.2,1.9-2.6,3.3l-1.3,4c-0.2,0.8-0.8,1.4-1.5,1.8
		c-0.7,0.3-1.5,0.4-2.2,0.1l-3.8-1.5c-0.7-0.3-1.4-0.4-2.1-0.4s-1.4,0.1-2.1,0.4l-3.8,1.5c-0.7,0.3-1.5,0.3-2.2-0.1
		c-0.7-0.4-1.3-1-1.5-1.8l-1.3-4C23.6,39.1,22.7,37.9,21.5,37.1z"/>
	<path class="st1" d="M30.9,48.8l-0.8,0.3c-0.7,0.3-1.4,0.4-2.1,0.4c-0.9,0-1.7-0.2-2.5-0.6c-1.4-0.7-2.6-2-3.1-3.5l-7.2,12.5
		l4.5-0.5c0.1,0,0.1,0,0.2,0c0.6,0,1.1,0.4,1.4,0.9l1.8,4.1L30.9,48.8z"/>
	<path class="st4" d="M24,40.5l1.3,4c0.2,0.8,0.8,1.4,1.5,1.8c0.7,0.3,1.5,0.4,2.2,0.1l3.8-1.5c0.7-0.3,1.4-0.4,2.1-0.4
		s1.4,0.1,2.1,0.4l3.8,1.5c0.7,0.3,1.5,0.3,2.2-0.1c0.7-0.4,1.3-1,1.5-1.8l1.3-4c0.4-1.4,1.4-2.6,2.6-3.3l3.5-2.1
		c0.7-0.4,1.2-1.1,1.3-1.9c0.2-0.8,0-1.6-0.4-2.3l-2.3-3.5c-0.8-1.2-1.1-2.7-0.9-4.1l0.6-4.2c0.1-0.8-0.1-1.6-0.6-2.3
		c-0.5-0.6-1.2-1-2-1.1l-4.1-0.4c-1.4-0.1-2.8-0.8-3.8-1.8l-2.8-3c-1.1-1.2-3.1-1.2-4.2,0l-2.8,3c-1,1.1-2.3,1.7-3.8,1.8l-4.1,0.4
		c-0.8,0.1-1.5,0.5-2,1.1c-0.5,0.7-0.7,1.5-0.6,2.3l0.6,4.2c0.2,1.4-0.1,2.9-0.9,4.1L17,30.8c-0.5,0.7-0.6,1.5-0.4,2.3
		c0.2,0.8,0.7,1.5,1.3,1.9l3.5,2.1C22.7,37.9,23.6,39.1,24,40.5z M35,17.5c6.4,0,11.5,5.2,11.5,11.5S41.4,40.6,35,40.6
		S23.5,35.4,23.5,29S28.6,17.5,35,17.5z"/>
	<path class="st1" d="M35,37.6c4.7,0,8.5-3.8,8.5-8.5s-3.8-8.5-8.5-8.5s-8.5,3.8-8.5,8.5S30.3,37.6,35,37.6z M35,23.5
		c3,0,5.5,2.5,5.5,5.5S38,34.5,35,34.5s-5.5-2.5-5.5-5.5S32,23.5,35,23.5z"/>
	<circle class="st1" cx="35" cy="29" r="2.5"/>
	<path class="st5" d="M35,40.6c6.4,0,11.5-5.2,11.5-11.5S41.4,17.5,35,17.5S23.5,22.7,23.5,29S28.6,40.6,35,40.6z M35,20.5
		c4.7,0,8.5,3.8,8.5,8.5s-3.8,8.5-8.5,8.5s-8.5-3.8-8.5-8.5S30.3,20.5,35,20.5z"/>
	<path class="st6" d="M35,34.5c3,0,5.5-2.5,5.5-5.5S38,23.5,35,23.5S29.5,26,29.5,29S32,34.5,35,34.5z M35,26.5
		c1.4,0,2.5,1.1,2.5,2.5s-1.1,2.5-2.5,2.5s-2.5-1.1-2.5-2.5S33.6,26.5,35,26.5z"/>
</g>
</svg>
