<?xml version="1.0" encoding="utf-8"?>
<!-- Generator: Adobe Illustrator 19.2.1, SVG Export Plug-In . SVG Version: 6.00 Build 0)  -->
<svg version="1.1" id="Layer_1" xmlns="http://www.w3.org/2000/svg" xmlns:xlink="http://www.w3.org/1999/xlink" x="0px" y="0px"
	 width="28px" height="28px" viewBox="0 0 28 28" style="enable-background:new 0 0 28 28;" xml:space="preserve">
<style type="text/css">
	.st0{fill:#034580;}
	.st1{fill:#FFFFFF;}
	.st2{fill:none;}
	.st3{fill:#E3F1F8;}
	.st4{fill:#99D2E8;}
	.st5{fill:#002F5F;}
	.st6{fill:#EB174B;}
	.st7{opacity:0.12;fill-rule:evenodd;clip-rule:evenodd;}
	.st8{fill:#282928;}
</style>
<g>
	<path d="M21,17c-1.2,0-2.3,0.5-3,1.4l-7.1-3.5C11,14.6,11,14.3,11,14c0-0.3,0-0.6-0.1-0.8L18,9.6c0.7,0.8,1.8,1.4,3,1.4
		c2.2,0,4-1.8,4-4c0-2.2-1.8-4-4-4s-4,1.8-4,4c0,0.3,0,0.6,0.1,0.8L10,11.4C9.3,10.5,8.2,10,7,10c-2.2,0-4,1.8-4,4c0,2.2,1.8,4,4,4
		c1.2,0,2.3-0.5,3-1.4l7.1,3.5C17,20.4,17,20.7,17,21c0,2.2,1.8,4,4,4s4-1.8,4-4C25,18.8,23.2,17,21,17z M21,5c1.1,0,2,0.9,2,2
		c0,1.1-0.9,2-2,2s-2-0.9-2-2C19,5.9,19.9,5,21,5z M7,16c-1.1,0-2-0.9-2-2c0-1.1,0.9-2,2-2s2,0.9,2,2C9,15.1,8.1,16,7,16z M21,23
		c-1.1,0-2-0.9-2-2c0-1.1,0.9-2,2-2s2,0.9,2,2C23,22.1,22.1,23,21,23z"/>
</g>
</svg>
