<?xml version="1.0" encoding="utf-8"?>
<!-- Generator: Adobe Illustrator 19.2.1, SVG Export Plug-In . SVG Version: 6.00 Build 0)  -->
<svg version="1.1" id="Layer_1" xmlns="http://www.w3.org/2000/svg" xmlns:xlink="http://www.w3.org/1999/xlink" x="0px" y="0px"
	 width="70px" height="70px" viewBox="0 0 70 70" style="enable-background:new 0 0 70 70;" xml:space="preserve">
<style type="text/css">
	.st0{fill:#034580;}
	.st1{fill:#FFFFFF;}
	.st2{fill:none;}
	.st3{fill:#E3F1F8;}
	.st4{fill:#99D2E8;}
	.st5{fill:#002F5F;}
	.st6{fill:#EB174B;}
	.st7{opacity:0.12;fill-rule:evenodd;clip-rule:evenodd;}
	.st8{fill:#282928;}
</style>
<g>
	<path class="st3" d="M35,66c7.7,0,14.8-2.8,20.2-7.5H14.8C20.2,63.2,27.3,66,35,66z"/>
	<path class="st3" d="M8,43.3h8c0.8,0,1.5,0.7,1.5,1.5v10.7h3V38.8c0-0.8,0.7-1.5,1.5-1.5h8c0.8,0,1.5,0.7,1.5,1.5v16.7h3V29.8
		c0-0.8,0.7-1.5,1.5-1.5h8c0.8,0,1.5,0.7,1.5,1.5v25.7h3V15.8c0-0.8,0.7-1.5,1.5-1.5h8c0,0,0.1,0,0.1,0C52.4,8,44.2,4,35,4
		C17.9,4,4,17.9,4,35c0,4.3,0.9,8.5,2.5,12.2v-2.4C6.5,44,7.2,43.3,8,43.3z M10.9,28.9l10-9.9c0.3-0.3,0.7-0.5,1.1-0.4
		c0.4,0,0.8,0.2,1.1,0.4l2.9,3l10.3-9.4H32c-0.8,0-1.5-0.7-1.5-1.5s0.7-1.5,1.5-1.5h8c0.8,0,1.5,0.7,1.5,1.5v8
		c0,0.8-0.7,1.5-1.5,1.5s-1.5-0.7-1.5-1.5v-4.5L26.9,25.1c-0.6,0.5-1.5,0.5-2.1-0.1L22,22.1L13.1,31c-0.3,0.3-0.7,0.4-1.1,0.4
		c-0.4,0-0.8-0.1-1.1-0.4C10.4,30.4,10.4,29.5,10.9,28.9z"/>
	<path class="st3" d="M66,35c0-7.2-2.4-13.7-6.5-19v38C63.6,48.7,66,42.2,66,35z"/>
	<rect x="9.5" y="46.3" class="st1" width="5" height="9"/>
	<rect x="23.5" y="40.3" class="st1" width="5" height="15"/>
	<rect x="37.5" y="31.3" class="st4" width="5" height="24"/>
	<rect x="51.5" y="17.3" class="st4" width="5" height="38"/>
	<path class="st6" d="M12,31.4c0.4,0,0.8-0.1,1.1-0.4l8.9-8.9l2.9,2.9c0.6,0.6,1.5,0.6,2.1,0.1l11.6-10.6V19c0,0.8,0.7,1.5,1.5,1.5
		s1.5-0.7,1.5-1.5v-8c0-0.8-0.7-1.5-1.5-1.5h-8c-0.8,0-1.5,0.7-1.5,1.5s0.7,1.5,1.5,1.5h4.3L26,21.9l-2.9-3
		c-0.3-0.3-0.7-0.4-1.1-0.4c-0.4,0-0.8,0.2-1.1,0.4l-10,9.9c-0.6,0.6-0.6,1.5,0,2.1C11.2,31.3,11.6,31.4,12,31.4z"/>
	<path class="st5" d="M61,55.5h-1.5V54V16v-0.2c0-0.8-0.6-1.4-1.4-1.5c0,0-0.1,0-0.1,0h-8c-0.8,0-1.5,0.7-1.5,1.5v39.7h-3V29.8
		c0-0.8-0.7-1.5-1.5-1.5h-8c-0.8,0-1.5,0.7-1.5,1.5v25.7h-3V38.8c0-0.8-0.7-1.5-1.5-1.5h-8c-0.8,0-1.5,0.7-1.5,1.5v16.7h-3V44.8
		c0-0.8-0.7-1.5-1.5-1.5H8c-0.8,0-1.5,0.7-1.5,1.5v2.4v8.3H5c-0.8,0-1.5,0.7-1.5,1.5s0.7,1.5,1.5,1.5h9.8h40.4H61
		c0.8,0,1.5-0.7,1.5-1.5S61.8,55.5,61,55.5z M14.5,55.3h-5v-9h5V55.3z M28.5,55.3h-5v-15h5V55.3z M42.5,55.3h-5v-24h5V55.3z
		 M56.5,55.3h-5v-38h5V55.3z"/>
</g>
</svg>
