<?xml version="1.0" encoding="utf-8"?>
<!-- Generator: Adobe Illustrator 19.2.1, SVG Export Plug-In . SVG Version: 6.00 Build 0)  -->
<svg version="1.1" id="Layer_1" xmlns="http://www.w3.org/2000/svg" xmlns:xlink="http://www.w3.org/1999/xlink" x="0px" y="0px"
	 width="70px" height="70px" viewBox="0 0 70 70" style="enable-background:new 0 0 70 70;" xml:space="preserve">
<style type="text/css">
	.st0{fill:#034580;}
	.st1{fill:#FFFFFF;}
	.st2{fill:none;}
	.st3{fill:#E3F1F8;}
	.st4{fill:#99D2E8;}
	.st5{fill:#002F5F;}
	.st6{fill:#EB174B;}
	.st7{opacity:0.12;fill-rule:evenodd;clip-rule:evenodd;}
	.st8{fill:#282928;}
</style>
<g>
	<polygon class="st3" points="13.3,31.7 13.3,31.7 13.3,31.7 13.3,31.7 	"/>
	<path class="st3" d="M61.8,19.5L59.2,21c-0.2,0.1-0.5,0.2-0.7,0.2c-0.5,0-1-0.3-1.3-0.8c-0.4-0.7-0.2-1.6,0.5-2l2.5-1.4
		c-2.4-3.4-5.5-6.2-9-8.4l-3.3,5.8C47.5,14.8,47,15,46.5,15c-0.3,0-0.5-0.1-0.7-0.2c-0.7-0.4-1-1.3-0.5-2l3.3-5.7
		C44.8,5.3,40.7,4.2,36.3,4c0,0,0,0.1,0,0.1v4.4c0,0.8-0.7,1.5-1.5,1.5s-1.5-0.7-1.5-1.5V4.1c0,0,0-0.1,0-0.1
		C29,4.3,24.9,5.4,21.2,7.2l2.9,5.1c0.4,0.7,0.2,1.6-0.5,2c-0.2,0.1-0.5,0.2-0.7,0.2c-0.5,0-1-0.3-1.3-0.8l-3-5.1
		c-3.5,2.2-6.6,5.1-9,8.5l2.2,1.3c0.7,0.4,1,1.3,0.5,2c-0.3,0.5-0.8,0.8-1.3,0.8c-0.3,0-0.5-0.1-0.7-0.2L8,19.8
		C5.5,24.3,4,29.5,4,35c0,17.1,13.9,31,31,31s31-13.9,31-31C66,29.3,64.5,24,61.8,19.5z M58.3,46.7c0,4.2-3.4,7.6-7.6,7.6
		c0,0-0.1,0-0.1,0v4.9c0,0.8-0.7,1.5-1.5,1.5h-7.2c-0.8,0-1.5-0.7-1.5-1.5v-4.1c-2.1,0.3-4.3-0.3-6-1.6c-1.4,1.2-3.2,1.9-5,1.9
		c-2.6,0-5-1.4-6.4-3.5c-0.9,0.4-1.9,0.6-2.9,0.6c-4.2,0-7.5-3.3-7.6-7.5c-0.2-0.1-0.3-0.1-0.5-0.2c-2.9-1.1-4.8-3.9-4.8-7.1
		c0-2.7,1.4-5.2,3.8-6.6c0.2-0.1,0.4-0.2,0.6-0.3c0-0.2,0-0.5,0-0.8c0-4.2,3.4-7.6,7.6-7.6c0.9,0,1.8,0.2,2.6,0.5
		c1.2-2.8,3.9-4.7,7-4.7c2.1,0,4.1,0.9,5.5,2.3c1.4-1.5,3.4-2.3,5.5-2.3c3.2,0,6,2,7.1,4.9c0.9-0.3,1.8-0.5,2.7-0.5
		c4,0,7.3,3.2,7.6,7.2c3.7,0.6,6.6,3.9,6.6,7.8c0,3.6-2.3,6.6-5.6,7.5C58.3,45.6,58.3,46.1,58.3,46.7z"/>
	<path class="st6" d="M11.1,21.3c0.5,0,1-0.3,1.3-0.8c0.4-0.7,0.2-1.6-0.5-2l-2.2-1.3l-2.3-1.3c-0.7-0.4-1.6-0.2-2,0.5
		c-0.4,0.7-0.2,1.6,0.5,2L8,19.8l2.3,1.3C10.5,21.2,10.8,21.3,11.1,21.3z"/>
	<path class="st6" d="M22.8,14.6c0.3,0,0.5-0.1,0.7-0.2c0.7-0.4,1-1.3,0.5-2l-2.9-5.1l-2-3.5c-0.4-0.7-1.3-1-2-0.5
		c-0.7,0.4-1,1.3-0.5,2l2,3.5l3,5.1C21.8,14.3,22.3,14.6,22.8,14.6z"/>
	<path class="st6" d="M33.3,8.5c0,0.8,0.7,1.5,1.5,1.5s1.5-0.7,1.5-1.5V4.1c0,0,0-0.1,0-0.1c0-0.8-0.7-1.4-1.5-1.4
		c-0.8,0-1.4,0.6-1.5,1.4c0,0,0,0.1,0,0.1V8.5z"/>
	<path class="st6" d="M45.8,14.8C46,15,46.3,15,46.5,15c0.5,0,1-0.3,1.3-0.8l3.3-5.8l2.3-4c0.4-0.7,0.2-1.6-0.5-2
		c-0.7-0.4-1.6-0.2-2,0.5l-2.4,4.1l-3.3,5.7C44.8,13.5,45.1,14.4,45.8,14.8z"/>
	<path class="st6" d="M57.2,20.4c0.3,0.5,0.8,0.8,1.3,0.8c0.3,0,0.5-0.1,0.7-0.2l2.6-1.5l2.5-1.5c0.7-0.4,1-1.3,0.5-2
		c-0.4-0.7-1.3-1-2-0.5l-2.7,1.5l-2.5,1.4C57,18.8,56.7,19.7,57.2,20.4z"/>
	<polygon class="st4" points="13.3,31.7 13.3,31.7 13.3,31.7 	"/>
	<path class="st4" d="M60.8,37.6c0-2.7-2.2-4.9-4.9-4.9c-0.5,0.1-1-0.1-1.3-0.4c-0.3-0.3-0.5-0.8-0.4-1.3c0-0.2,0-0.4,0-0.7
		c0-2.5-2.1-4.6-4.6-4.6c-1,0-2,0.3-2.8,1c-0.4,0.3-1,0.4-1.5,0.2c-0.5-0.2-0.9-0.7-0.9-1.3c-0.2-2.4-2.2-4.3-4.6-4.3
		c-1.8,0-3.3,1-4.1,2.6c-0.2,0.5-0.8,0.8-1.3,0.8c0,0,0,0,0,0c-0.6,0-1.1-0.3-1.3-0.8c-0.8-1.6-2.4-2.6-4.1-2.6
		c-2.3,0-4.3,1.7-4.6,4.1c-0.1,0.5-0.4,1-0.9,1.2c-0.5,0.2-1.1,0.1-1.5-0.2c-0.8-0.6-1.7-0.9-2.7-0.9c-2.5,0-4.6,2.1-4.6,4.6
		c0,0.4,0.1,0.8,0.2,1.2c0,0,0,0.1,0,0.1c0,0,0,0.1,0,0.1c0.1,0.8-0.3,1.6-1.1,1.8c-0.5,0.1-0.9,0.3-1.2,0.5c-1.4,0.8-2.3,2.3-2.3,4
		c0,1.9,1.1,3.6,2.9,4.3c0.2,0.1,0.3,0.1,0.4,0.1c0.2,0.1,0.5,0.1,0.8,0.1c0.2,0,0.4,0.1,0.6,0.2c0,0,0,0,0,0c0.2,0,0.4,0,0.5,0
		c1.3,0,2.6-0.5,3.5-1.5c0.3-0.4,0.8-0.5,1.3-0.4c0.5,0.1,0.9,0.4,1.1,0.8c0.8,1.6,2.5,2.7,4.3,2.7c1.4,0,2.6-0.5,3.5-1.5
		c0.1-0.1,0.2-0.1,0.2-0.2c0,0,0,0,0.1,0c0.1,0,0.1-0.1,0.2-0.1c0,0,0,0,0,0c0.1,0,0.2-0.1,0.3-0.1c0,0,0,0,0.1,0c0.1,0,0.1,0,0.2,0
		c0,0,0,0,0.1,0c0.4,0,0.8,0.2,1.1,0.6c0.9,1.2,2.3,1.9,3.8,1.9c1.8,0,3.4-1,4.2-2.5c0.3-0.5,0.7-0.8,1.3-0.8c0.5,0,1,0.3,1.3,0.7
		c0.9,1.4,2.4,2.3,4.1,2.3c1.8,0,3.4-1,4.3-2.6c0.2-0.4,0.6-0.7,1-0.8c0.4-0.1,0.9,0,1.2,0.3c0.9,0.7,2,1.1,3.1,1.1c0,0,0.1,0,0.1,0
		C58.7,42.3,60.8,40.2,60.8,37.6z M24.4,37.8c-0.7,0.4-1.6,0.2-2.1-0.5c-0.4-0.6-1-0.9-1.6-0.9c-0.7,0-1.4,0.4-1.7,1
		c-0.3,0.5-0.8,0.8-1.3,0.8c-0.2,0-0.5-0.1-0.7-0.2c-0.7-0.4-1-1.3-0.6-2c0.9-1.6,2.5-2.6,4.3-2.6c1.7,0,3.3,0.9,4.2,2.3
		C25.3,36.4,25.1,37.4,24.4,37.8z M33.9,39.4c-0.9,0.9-2.2,1.4-3.5,1.4c-0.4,0-0.8,0-1.1-0.1c-0.8-0.2-1.3-1-1.1-1.8
		c0.2-0.8,1-1.3,1.8-1.1c0.7,0.1,1.3,0,1.8-0.5c0.5-0.5,0.7-1.2,0.5-1.9c-0.2-0.8,0.2-1.6,1-1.9c0.8-0.2,1.6,0.2,1.9,1
		C35.6,36.2,35.2,38.1,33.9,39.4z M35.9,31.1c-1,0-2-0.3-2.8-0.9c-0.9,0.7-1.9,1-3,1c-1.5,0-2.9-0.7-3.9-1.9
		c-0.5-0.7-0.4-1.6,0.3-2.1c0.7-0.5,1.6-0.4,2.1,0.3c0.4,0.5,0.9,0.7,1.5,0.7c0.7,0,1.3-0.4,1.7-1c0.3-0.5,0.7-0.8,1.3-0.8
		c0.5,0,1,0.3,1.3,0.7c0.4,0.6,1,0.9,1.6,0.9c0.7,0,1.4-0.4,1.7-1c0.4-0.7,1.3-1,2-0.6c0.7,0.4,1,1.3,0.6,2
		C39.4,30.1,37.7,31.1,35.9,31.1z M45.5,39.2c-0.5,0.1-1,0.2-1.4,0.2c-1.3,0-2.5-0.5-3.5-1.4c-1.2-1.2-1.7-2.9-1.3-4.6
		c0.2-0.8,1-1.3,1.8-1.1c0.8,0.2,1.3,1,1.1,1.8c-0.2,0.6,0,1.3,0.5,1.8c0.5,0.5,1.2,0.7,1.9,0.5c0.8-0.2,1.6,0.2,1.9,1
		C46.7,38.1,46.2,39,45.5,39.2z M54.3,38.6c-0.2,0.7-0.8,1.2-1.5,1.2c-0.1,0-0.2,0-0.3,0c-0.8-0.2-1.3-1-1.1-1.8
		c0.1-0.6,0-1.3-0.5-1.8c-0.5-0.5-1.2-0.7-1.9-0.5c-0.8,0.2-1.6-0.2-1.9-1c-0.2-0.8,0.2-1.6,1-1.9c1.7-0.5,3.6-0.1,4.9,1.2
		C54.2,35.2,54.7,36.9,54.3,38.6z"/>
	<path class="st5" d="M63.8,37.6c0-3.9-2.8-7.1-6.6-7.8c-0.2-4-3.5-7.2-7.6-7.2c-0.9,0-1.9,0.2-2.7,0.5c-1.1-2.9-3.9-4.9-7.1-4.9
		c-2.1,0-4.1,0.9-5.5,2.3c-1.4-1.5-3.4-2.3-5.5-2.3c-3.1,0-5.9,1.9-7,4.7c-0.8-0.3-1.7-0.5-2.6-0.5c-4.2,0-7.6,3.4-7.6,7.6
		c0,0.3,0,0.5,0,0.8c-0.2,0.1-0.4,0.2-0.6,0.3c-2.3,1.3-3.8,3.9-3.8,6.6c0,3.2,1.9,5.9,4.8,7.1c0.2,0.1,0.3,0.1,0.5,0.2
		c0.1,4.1,3.4,7.5,7.6,7.5c1,0,2-0.2,2.9-0.6c1.4,2.1,3.8,3.5,6.4,3.5c1.9,0,3.7-0.7,5-1.9c1.6,1.3,3.9,2,6,1.6v4.1
		c0,0.8,0.7,1.5,1.5,1.5h7.2c0.8,0,1.5-0.7,1.5-1.5v-4.9c0,0,0.1,0,0.1,0c4.2,0,7.6-3.4,7.6-7.6c0-0.5-0.1-1.1-0.2-1.6
		C61.4,44.1,63.8,41.1,63.8,37.6z M50.7,51.3c-0.4,0-0.8-0.1-1.2-0.2c-0.5-0.1-0.9,0-1.3,0.3c-0.4,0.3-0.6,0.7-0.6,1.2v5.1h-4.2
		v-4.6c0-0.5-0.3-1-0.7-1.3c-0.4-0.3-1-0.3-1.5-0.1c-0.6,0.3-1.3,0.5-2,0.5c-1.4,0-2.8-0.7-3.6-1.8c-0.3-0.4-0.7-0.6-1.2-0.6
		c0,0,0,0,0,0c-0.5,0-0.9,0.2-1.2,0.6c-0.9,1.2-2.3,2-3.8,2c-2,0-3.7-1.2-4.3-3.1c-0.2-0.4-0.5-0.8-1-0.9c-0.5-0.1-0.9-0.1-1.3,0.2
		c-0.8,0.6-1.7,0.9-2.7,0.9c-2.3,0-4.2-1.7-4.6-3.9c1.5,0,2.9-0.5,4.1-1.3c1.5,1.8,3.7,2.8,6,2.8c1.6,0,3.2-0.5,4.5-1.4
		c1.4,1.2,3.2,1.9,5.1,1.9c2.1,0,4.1-0.9,5.6-2.3c1.4,1.3,3.3,2.1,5.3,2.1c2.4,0,4.5-1,6-2.8c0.9,0.5,1.9,0.8,2.9,0.9
		c0.1,0.4,0.2,0.8,0.2,1.3C55.3,49.2,53.3,51.3,50.7,51.3z M56,42.4c0,0-0.1,0-0.1,0c-1.1,0-2.2-0.4-3.1-1.1
		C52.4,41,52,40.9,51.5,41c-0.4,0.1-0.8,0.4-1,0.8c-0.8,1.6-2.5,2.6-4.3,2.6c-1.7,0-3.2-0.9-4.1-2.3c-0.3-0.4-0.8-0.7-1.3-0.7
		c-0.5,0-1,0.3-1.3,0.8c-0.9,1.5-2.5,2.5-4.2,2.5c-1.5,0-2.9-0.7-3.8-1.9c-0.3-0.3-0.7-0.6-1.1-0.6c0,0,0,0-0.1,0
		c-0.1,0-0.1,0-0.2,0c0,0,0,0-0.1,0c-0.1,0-0.2,0-0.3,0.1c0,0,0,0,0,0c-0.1,0-0.2,0.1-0.2,0.1c0,0,0,0-0.1,0
		c-0.1,0.1-0.2,0.1-0.2,0.2c-0.9,1-2.2,1.5-3.5,1.5c-1.8,0-3.6-1.1-4.3-2.7c-0.2-0.4-0.6-0.8-1.1-0.8c-0.5-0.1-1,0.1-1.3,0.4
		c-0.9,1-2.2,1.5-3.5,1.5c-0.2,0-0.3,0-0.5,0c0,0,0,0,0,0c-0.2-0.1-0.4-0.2-0.6-0.2c-0.3,0-0.5-0.1-0.8-0.1c-0.1,0-0.2-0.1-0.4-0.1
		c-1.8-0.7-2.9-2.4-2.9-4.3c0-1.6,0.9-3.2,2.3-4c0.3-0.2,0.7-0.4,1.2-0.5c0.8-0.2,1.2-1,1.1-1.8c0,0,0-0.1,0-0.1c0,0,0-0.1,0-0.1
		c-0.1-0.4-0.2-0.7-0.2-1.2c0-2.5,2.1-4.6,4.6-4.6c1,0,1.9,0.3,2.7,0.9c0.4,0.3,1,0.4,1.5,0.2c0.5-0.2,0.8-0.7,0.9-1.2
		c0.3-2.3,2.2-4.1,4.6-4.1c1.8,0,3.3,1,4.1,2.6c0.3,0.5,0.8,0.8,1.3,0.8c0,0,0,0,0,0c0.6,0,1.1-0.3,1.3-0.8c0.8-1.6,2.3-2.6,4.1-2.6
		c2.4,0,4.4,1.9,4.6,4.3c0,0.6,0.4,1,0.9,1.3c0.5,0.2,1.1,0.1,1.5-0.2c0.8-0.6,1.8-1,2.8-1c2.5,0,4.6,2.1,4.6,4.6c0,0.3,0,0.5,0,0.7
		c-0.1,0.5,0.1,1,0.4,1.3c0.3,0.3,0.8,0.5,1.3,0.4c2.7,0,4.9,2.2,4.9,4.9C60.8,40.2,58.7,42.3,56,42.4z M13.3,31.7L13.3,31.7
		L13.3,31.7L13.3,31.7L13.3,31.7L13.3,31.7z"/>
	<path class="st1" d="M55.1,45.4c-1-0.1-2-0.4-2.9-0.9c-1.5,1.8-3.7,2.8-6,2.8c-2,0-3.9-0.8-5.3-2.1c-1.5,1.5-3.5,2.3-5.6,2.3
		c-1.9,0-3.7-0.7-5.1-1.9c-1.3,0.9-2.9,1.4-4.5,1.4c-2.4,0-4.6-1.1-6-2.8c-1.2,0.8-2.6,1.2-4.1,1.3c0.3,2.2,2.2,3.9,4.6,3.9
		c1,0,1.9-0.3,2.7-0.9c0.4-0.3,0.9-0.4,1.3-0.2c0.5,0.1,0.8,0.5,1,0.9c0.6,1.8,2.4,3.1,4.3,3.1c1.5,0,2.9-0.7,3.8-2
		c0.3-0.4,0.7-0.6,1.2-0.6c0,0,0,0,0,0c0.5,0,0.9,0.2,1.2,0.6c0.8,1.1,2.2,1.8,3.6,1.8c0.7,0,1.4-0.2,2-0.5c0.5-0.2,1-0.2,1.5,0.1
		c0.4,0.3,0.7,0.8,0.7,1.3v4.6h4.2v-5.1c0-0.5,0.2-0.9,0.6-1.2c0.4-0.3,0.8-0.4,1.3-0.3c0.4,0.1,0.8,0.2,1.2,0.2
		c2.5,0,4.6-2.1,4.6-4.6C55.3,46.2,55.3,45.8,55.1,45.4z"/>
	<path class="st5" d="M40.2,28.5c0.4-0.7,0.1-1.6-0.6-2c-0.7-0.4-1.6-0.1-2,0.6c-0.3,0.6-1,1-1.7,1c-0.7,0-1.3-0.3-1.6-0.9
		c-0.3-0.4-0.8-0.7-1.3-0.7c-0.5,0-1,0.3-1.3,0.8c-0.3,0.6-1,1-1.7,1c-0.6,0-1.1-0.3-1.5-0.7c-0.5-0.7-1.4-0.8-2.1-0.3
		c-0.7,0.5-0.8,1.4-0.3,2.1c0.9,1.2,2.3,1.9,3.9,1.9c1.1,0,2.2-0.4,3-1c0.8,0.6,1.8,0.9,2.8,0.9C37.7,31.1,39.4,30.1,40.2,28.5z"/>
	<path class="st5" d="M33.2,33.5c-0.8,0.2-1.2,1.1-1,1.9c0.2,0.7,0,1.4-0.5,1.9c-0.5,0.5-1.1,0.7-1.8,0.5c-0.8-0.2-1.6,0.3-1.8,1.1
		c-0.2,0.8,0.3,1.6,1.1,1.8c0.4,0.1,0.8,0.1,1.1,0.1c1.3,0,2.5-0.5,3.5-1.4c1.3-1.3,1.8-3.2,1.2-4.9C34.9,33.7,34,33.3,33.2,33.5z"
		/>
	<path class="st5" d="M44.6,36.3c-0.7,0.2-1.4,0-1.9-0.5c-0.5-0.5-0.7-1.1-0.5-1.8c0.2-0.8-0.3-1.6-1.1-1.8
		c-0.8-0.2-1.6,0.3-1.8,1.1c-0.4,1.7,0.1,3.4,1.3,4.6c0.9,0.9,2.2,1.4,3.5,1.4c0.5,0,1-0.1,1.4-0.2c0.8-0.2,1.2-1.1,1-1.9
		C46.2,36.5,45.4,36.1,44.6,36.3z"/>
	<path class="st5" d="M20.7,33.4c-1.8,0-3.5,1-4.3,2.6c-0.4,0.7-0.1,1.6,0.6,2c0.2,0.1,0.5,0.2,0.7,0.2c0.5,0,1.1-0.3,1.3-0.8
		c0.3-0.6,1-1,1.7-1c0.7,0,1.3,0.3,1.6,0.9c0.4,0.7,1.4,0.9,2.1,0.5c0.7-0.4,0.9-1.4,0.5-2.1C24,34.3,22.4,33.4,20.7,33.4z"/>
	<path class="st5" d="M48.1,32.8c-0.8,0.2-1.2,1.1-1,1.9c0.2,0.8,1.1,1.2,1.9,1c0.7-0.2,1.4,0,1.9,0.5c0.5,0.5,0.7,1.1,0.5,1.8
		c-0.2,0.8,0.3,1.6,1.1,1.8c0.1,0,0.2,0,0.3,0c0.7,0,1.3-0.5,1.5-1.2c0.4-1.7-0.1-3.4-1.3-4.6C51.7,32.7,49.8,32.2,48.1,32.8z"/>
</g>
</svg>
