<?xml version="1.0" encoding="utf-8"?>
<!-- Generator: Adobe Illustrator 19.2.1, SVG Export Plug-In . SVG Version: 6.00 Build 0)  -->
<svg version="1.1" id="Layer_1" xmlns="http://www.w3.org/2000/svg" xmlns:xlink="http://www.w3.org/1999/xlink" x="0px" y="0px"
	 width="28px" height="28px" viewBox="0 0 28 28" style="enable-background:new 0 0 28 28;" xml:space="preserve">
<style type="text/css">
	.st0{fill:#034580;}
	.st1{fill:#FFFFFF;}
	.st2{fill:none;}
	.st3{fill:#E3F1F8;}
	.st4{fill:#99D2E8;}
	.st5{fill:#002F5F;}
	.st6{fill:#EB174B;}
	.st7{opacity:0.12;fill-rule:evenodd;clip-rule:evenodd;}
	.st8{fill:#282928;}
</style>
<path d="M24.1,5.9c-2.5-2.5-6.7-2.5-9.2,0C14.5,6.2,14.3,6.6,14,7c-0.3-0.4-0.5-0.8-0.9-1.1c-2.5-2.5-6.7-2.5-9.2,0
	C1.4,8.4,1.6,13,4.3,15.7l9,9c0.2,0.2,0.5,0.3,0.7,0.3s0.5-0.1,0.7-0.3l9-9C26.4,13,26.6,8.4,24.1,5.9z M22.3,14.3L14,22.6l-8.3-8.3
	c-1.9-1.9-2.1-5.3-0.4-7c1.8-1.8,4.6-1.8,6.4,0c0.9,0.8,1.3,2,1.3,3.2c0,0.5,0.5,1,1,1s1-0.5,1-1c0-1.2,0.5-2.3,1.3-3.2
	c1.8-1.8,4.6-1.8,6.4,0C24.3,9,24.2,12.4,22.3,14.3z"/>
</svg>
