<?xml version="1.0" encoding="utf-8"?>
<!-- Generator: Adobe Illustrator 19.2.1, SVG Export Plug-In . SVG Version: 6.00 Build 0)  -->
<svg version="1.1" id="Layer_1" xmlns="http://www.w3.org/2000/svg" xmlns:xlink="http://www.w3.org/1999/xlink" x="0px" y="0px"
	 width="28px" height="28px" viewBox="0 0 28 28" style="enable-background:new 0 0 28 28;" xml:space="preserve">
<style type="text/css">
	.st0{fill:#034580;}
	.st1{fill:#FFFFFF;}
	.st2{fill:none;}
	.st3{fill:#E3F1F8;}
	.st4{fill:#99D2E8;}
	.st5{fill:#002F5F;}
	.st6{fill:#EB174B;}
	.st7{opacity:0.12;fill-rule:evenodd;clip-rule:evenodd;}
	.st8{fill:#282928;}
</style>
<g>
	<path d="M14,2c-5,0-9,4-9,9c0,9.5,8.1,14.6,8.5,14.8C13.6,26,13.8,26,14,26s0.4,0,0.5-0.2C14.9,25.6,23,20.5,23,11C23,6,19,2,14,2z
		 M14,23.8C12.3,22.5,7,18,7,11c0-3.9,3.1-7,7-7s7,3.1,7,7C21,18,15.7,22.5,14,23.8z"/>
	<path d="M14,6c-2.8,0-5,2.2-5,5s2.2,5,5,5s5-2.2,5-5S16.8,6,14,6z M14,14c-1.7,0-3-1.4-3-3c0-1.7,1.3-3,3-3s3,1.3,3,3
		C17,12.6,15.7,14,14,14z"/>
</g>
</svg>
