<?xml version="1.0" encoding="utf-8"?>
<!-- Generator: Adobe Illustrator 19.2.1, SVG Export Plug-In . SVG Version: 6.00 Build 0)  -->
<svg version="1.1" id="Layer_1" xmlns="http://www.w3.org/2000/svg" xmlns:xlink="http://www.w3.org/1999/xlink" x="0px" y="0px"
	 width="70px" height="70px" viewBox="0 0 70 70" style="enable-background:new 0 0 70 70;" xml:space="preserve">
<style type="text/css">
	.st0{fill:#034580;}
	.st1{fill:#FFFFFF;}
	.st2{fill:none;}
	.st3{fill:#E3F1F8;}
	.st4{fill:#99D2E8;}
	.st5{fill:#002F5F;}
	.st6{fill:#EB174B;}
	.st7{opacity:0.12;fill-rule:evenodd;clip-rule:evenodd;}
	.st8{fill:#282928;}
</style>
<g>
	<path class="st3" d="M37.8,4.1l1.6,3.3l5.8,0.8c0.6,0.1,1,0.5,1.2,1c0.2,0.5,0,1.1-0.4,1.5l-4.2,4.1l0.3,1.6H46
		c0.4,0,0.8,0.2,1.1,0.5c0.3,0.3,0.4,0.7,0.4,1.1l-0.3,4.4H57c0.8,0,1.5,0.7,1.5,1.5v12v14v2c0,0.8-0.7,1.5-1.5,1.5H45.5V57
		c0,0.8-0.7,1.5-1.5,1.5H27c-0.8,0-1.5-0.7-1.5-1.5v-5.5H14c-0.8,0-1.5-0.7-1.5-1.5V36v-8c0-0.8,0.7-1.5,1.5-1.5h10.1l-0.6-8.4
		c0-0.4,0.1-0.8,0.4-1.1c0.3-0.3,0.7-0.5,1.1-0.5h3.9l0.3-1.6L25,10.8c-0.4-0.4-0.6-1-0.4-1.5c0.2-0.5,0.6-0.9,1.2-1l5.8-0.8
		l1.6-3.3C17.2,5.3,4.5,18.6,4.5,35c0,17.1,13.9,31,31,31s31-13.9,31-31C66.5,18.6,53.8,5.3,37.8,4.1z"/>
	<polygon class="st1" points="25.5,48 24.8,37.5 15.5,37.5 15.5,48.5 25.5,48.5 	"/>
	<polygon class="st4" points="46.4,34.5 55.5,34.5 55.5,25.5 47,25.5 	"/>
	<path class="st1" d="M55.5,48.5v-11h-9.3l-0.3,5H52c0.8,0,1.5,0.7,1.5,1.5s-0.7,1.5-1.5,1.5h-6.3l-0.2,2.6v2.4h10V48.5z"/>
	<path class="st4" d="M24.3,29.5h-8.8v5h9.1L24.3,29.5z M21.5,33.5h-1c-0.8,0-1.5-0.7-1.5-1.5s0.7-1.5,1.5-1.5h1
		c0.8,0,1.5,0.7,1.5,1.5S22.3,33.5,21.5,33.5z"/>
	<path class="st4" d="M28.4,46.5h14.2l1.8-27h-1.8l0.2,1.1c0.1,0.6-0.1,1.1-0.6,1.5c-0.3,0.2-0.6,0.3-0.9,0.3
		c-0.2,0-0.5-0.1-0.7-0.2l-5.1-2.7h-0.1l-5.1,2.7c-0.5,0.3-1.1,0.2-1.6-0.1c-0.5-0.3-0.7-0.9-0.6-1.5l0.2-1.1h-1.8L28.4,46.5z"/>
	<polygon class="st5" points="35.5,19.5 35.4,19.5 35.6,19.5 	"/>
	<path class="st5" d="M42.6,19.5h1.8l-1.8,27H28.4l-1.8-27h1.8l0.5-3H25c-0.4,0-0.8,0.2-1.1,0.5c-0.3,0.3-0.4,0.7-0.4,1.1l0.6,8.4
		H14c-0.8,0-1.5,0.7-1.5,1.5v8v14c0,0.8,0.7,1.5,1.5,1.5h11.5V57c0,0.8,0.7,1.5,1.5,1.5h17c0.8,0,1.5-0.7,1.5-1.5v-3.5H57
		c0.8,0,1.5-0.7,1.5-1.5v-2V36V24c0-0.8-0.7-1.5-1.5-1.5h-9.8l0.3-4.4c0-0.4-0.1-0.8-0.4-1.1c-0.3-0.3-0.7-0.5-1.1-0.5h-3.9
		L42.6,19.5z M15.5,37.5h9.3L25.5,48v0.5h-10V37.5z M15.5,29.5h8.8l0.3,5h-9.1V29.5z M28.5,55.5v-6h2.1c0.3,2.5,2.4,4.5,4.9,4.5
		s4.7-2,4.9-4.5h2.1v1v5H28.5z M35.5,51c-1.1,0-2-0.9-2-2h4C37.5,50.1,36.6,51,35.5,51z M45.5,50.5v-2.4l0.2-2.6H52
		c0.8,0,1.5-0.7,1.5-1.5s-0.7-1.5-1.5-1.5h-6.1l0.3-5h9.3v11v2H45.5z M55.5,34.5h-9.1l0.6-9h8.5V34.5z"/>
	<path class="st1" d="M42.5,50.5v-1h-2.1C40.2,52,38.1,54,35.5,54s-4.7-2-4.9-4.5h-2.1v6h14V50.5z"/>
	<path class="st1" d="M31.8,13.3c0.4,0.3,0.5,0.8,0.4,1.3l-0.6,3.5l3.2-1.7c0.2-0.1,0.5-0.2,0.7-0.2s0.5,0.1,0.7,0.2l3.2,1.7
		l-0.6-3.5c-0.1-0.5,0.1-1,0.4-1.3l2.6-2.5l-3.5-0.5c-0.5-0.1-0.9-0.4-1.1-0.8l-1.6-3.2l-1.6,3.2c-0.2,0.4-0.6,0.7-1.1,0.8l-3.5,0.5
		L31.8,13.3z"/>
	<path class="st6" d="M25.8,8.2c-0.6,0.1-1,0.5-1.2,1c-0.2,0.5,0,1.1,0.4,1.5l4.2,4.1l-0.3,1.6l-0.5,3l-0.2,1.1
		c-0.1,0.6,0.1,1.1,0.6,1.5c0.5,0.3,1.1,0.4,1.6,0.1l5.1-2.7l0.1,0l0.1,0l5.1,2.7c0.2,0.1,0.5,0.2,0.7,0.2c0.3,0,0.6-0.1,0.9-0.3
		c0.5-0.3,0.7-0.9,0.6-1.5l-0.2-1.1l-0.5-3l-0.3-1.6l4.2-4.1c0.4-0.4,0.6-1,0.4-1.5c-0.2-0.5-0.6-0.9-1.2-1l-5.8-0.8l-1.6-3.3
		l-0.9-1.9c-0.3-0.5-0.8-0.8-1.3-0.8s-1.1,0.3-1.3,0.8l-0.9,1.9l-1.6,3.3L25.8,8.2z M33.9,9.4l1.6-3.2l1.6,3.2
		c0.2,0.4,0.6,0.7,1.1,0.8l3.5,0.5l-2.6,2.5c-0.4,0.3-0.5,0.8-0.4,1.3l0.6,3.5l-3.2-1.7c-0.2-0.1-0.5-0.2-0.7-0.2s-0.5,0.1-0.7,0.2
		l-3.2,1.7l0.6-3.5c0.1-0.5-0.1-1-0.4-1.3l-2.6-2.5l3.5-0.5C33.3,10.2,33.7,9.9,33.9,9.4z"/>
	<path class="st1" d="M35.5,51c1.1,0,2-0.9,2-2h-4C33.5,50.1,34.4,51,35.5,51z"/>
	<path class="st5" d="M21.5,30.5h-1c-0.8,0-1.5,0.7-1.5,1.5s0.7,1.5,1.5,1.5h1c0.8,0,1.5-0.7,1.5-1.5S22.3,30.5,21.5,30.5z"/>
</g>
</svg>
