<?xml version="1.0" encoding="utf-8"?>
<!-- Generator: Adobe Illustrator 19.2.1, SVG Export Plug-In . SVG Version: 6.00 Build 0)  -->
<svg version="1.1" id="Layer_1" xmlns="http://www.w3.org/2000/svg" xmlns:xlink="http://www.w3.org/1999/xlink" x="0px" y="0px"
	 width="28px" height="28px" viewBox="0 0 28 28" style="enable-background:new 0 0 28 28;" xml:space="preserve">
<style type="text/css">
	.st0{fill:#034580;}
	.st1{fill:#FFFFFF;}
	.st2{fill:none;}
	.st3{fill:#E3F1F8;}
	.st4{fill:#99D2E8;}
	.st5{fill:#002F5F;}
	.st6{fill:#EB174B;}
	.st7{opacity:0.12;fill-rule:evenodd;clip-rule:evenodd;}
	.st8{fill:#282928;}
</style>
<g>
	<path d="M24.2,12.4l-4.4,4.3l1,6c0.1,0.4-0.1,0.8-0.4,1c-0.2,0.1-0.4,0.2-0.6,0.2c-0.2,0-0.3,0-0.5-0.1L14,20.9l-5.4,2.8
		c-0.3,0.2-0.7,0.2-1-0.1c-0.3-0.2-0.5-0.6-0.4-1l1-6l-4.4-4.3c-0.3-0.3-0.4-0.7-0.2-1C3.6,11,4,10.8,4.3,10.7l6.1-0.9l2.7-5.5
		c0.3-0.7,1.5-0.7,1.8,0l2.7,5.5l6.1,0.9c0.4,0,0.7,0.3,0.8,0.7C24.6,11.8,24.5,12.2,24.2,12.4z"/>
</g>
</svg>
