<?xml version="1.0" encoding="utf-8"?>
<!-- Generator: Adobe Illustrator 19.2.1, SVG Export Plug-In . SVG Version: 6.00 Build 0)  -->
<svg version="1.1" id="Layer_1" xmlns="http://www.w3.org/2000/svg" xmlns:xlink="http://www.w3.org/1999/xlink" x="0px" y="0px"
	 width="28px" height="28px" viewBox="0 0 28 28" style="enable-background:new 0 0 28 28;" xml:space="preserve">
<style type="text/css">
	.st0{fill:#034580;}
	.st1{fill:#FFFFFF;}
	.st2{fill:none;}
	.st3{fill:#E3F1F8;}
	.st4{fill:#99D2E8;}
	.st5{fill:#002F5F;}
	.st6{fill:#EB174B;}
	.st7{opacity:0.12;fill-rule:evenodd;clip-rule:evenodd;}
	.st8{fill:#282928;}
</style>
<g>
	<path d="M9.5,19C7.6,19,6,20.6,6,22.5S7.6,26,9.5,26s3.5-1.6,3.5-3.5S11.4,19,9.5,19z M9.5,24C8.7,24,8,23.3,8,22.5S8.7,21,9.5,21
		s1.5,0.7,1.5,1.5S10.3,24,9.5,24z"/>
	<path class="st0" d="M22,2c-2.2,0-4,1.8-4,4c0,0.7,0.2,1.4,0.5,2c0.7,1.2,2,2,3.5,2c0.3,0,0.5,0,0.8-0.1c1.6-0.3,2.9-1.6,3.2-3.3
		C26,6.5,26,6.2,26,6C26,3.8,24.2,2,22,2z"/>
	<path d="M18.5,19c-1.9,0-3.5,1.6-3.5,3.5s1.6,3.5,3.5,3.5s3.5-1.6,3.5-3.5S20.4,19,18.5,19z M18.5,24c-0.8,0-1.5-0.7-1.5-1.5
		s0.7-1.5,1.5-1.5s1.5,0.7,1.5,1.5S19.3,24,18.5,24z"/>
	<path d="M8,12V8h8.3C16.1,7.4,16,6.7,16,6H7.6C6.8,4.2,5,3,3,3C2.5,3,2,3.5,2,4s0.5,1,1,1c1.7,0,3,1.3,3,3v9c0,0.5,0.5,1,1,1h14
		c0.4,0,0.8-0.3,0.9-0.6l2.2-5.4H8z M21,14l-0.7,2H8v-2L21,14L21,14z"/>
</g>
</svg>
