<?xml version="1.0" encoding="utf-8"?>
<!-- Generator: Adobe Illustrator 19.2.1, SVG Export Plug-In . SVG Version: 6.00 Build 0)  -->
<svg version="1.1" id="Layer_1" xmlns="http://www.w3.org/2000/svg" xmlns:xlink="http://www.w3.org/1999/xlink" x="0px" y="0px"
	 width="28px" height="28px" viewBox="0 0 28 28" style="enable-background:new 0 0 28 28;" xml:space="preserve">
<style type="text/css">
	.st0{fill:#034580;}
	.st1{fill:#FFFFFF;}
	.st2{fill:none;}
	.st3{fill:#E3F1F8;}
	.st4{fill:#99D2E8;}
	.st5{fill:#002F5F;}
	.st6{fill:#EB174B;}
	.st7{opacity:0.12;fill-rule:evenodd;clip-rule:evenodd;}
	.st8{fill:#282928;}
</style>
<g>
	<path d="M20.5,7.7l-0.6-0.6l-0.6,0.6h0.2v0.4h0.8V7.7H20.5z M19.9,7.5l0.2,0.2h-0.5L19.9,7.5z M20.1,8.2H20V8h-0.1v0.1h-0.1V7.9
		h0.4V8.2z"/>
	<path d="M21.1,7.2l-0.4,0.4h0.1v0.4H21h0.1h0.4V7.7h0L21.1,7.2z M21.3,7.9v0.3h-0.1V7.9H21v0.2h-0.1V7.9v0l0.2-0.2L21.3,7.9
		L21.3,7.9z"/>
	<path id="Blue_1_" d="M22.9,24c0.6,0,1.1-0.5,1.1-1.1V5.1C24,4.5,23.5,4,22.9,4H5.1C4.5,4,4,4.5,4,5.1v17.8C4,23.5,4.5,24,5.1,24
		H22.9z"/>
	<path id="f" class="st0" d="M17.8,24v-7.7h2.6l0.4-3h-3v-1.9c0-0.9,0.2-1.5,1.5-1.5l1.6,0V7.1c-0.3,0-1.2-0.1-2.3-0.1
		c-2.3,0-3.9,1.4-3.9,4v2.2h-2.6v3h2.6V24H17.8z"/>
</g>
</svg>
