<?xml version="1.0" encoding="utf-8"?>
<!-- Generator: Adobe Illustrator 19.2.1, SVG Export Plug-In . SVG Version: 6.00 Build 0)  -->
<svg version="1.1" id="Layer_1" xmlns="http://www.w3.org/2000/svg" xmlns:xlink="http://www.w3.org/1999/xlink" x="0px" y="0px"
	 width="28px" height="28px" viewBox="0 0 28 28" style="enable-background:new 0 0 28 28;" xml:space="preserve">
<style type="text/css">
	.st0{fill:#034580;}
	.st1{fill:#FFFFFF;}
	.st2{fill:none;}
	.st3{fill:#E3F1F8;}
	.st4{fill:#99D2E8;}
	.st5{fill:#002F5F;}
	.st6{fill:#EB174B;}
	.st7{opacity:0.12;fill-rule:evenodd;clip-rule:evenodd;}
	.st8{fill:#282928;}
</style>
<g>
	<path d="M20,24H7V7h8V5H6C5.5,5,5,5.5,5,6v19c0,0.5,0.5,1,1,1h15c0.5,0,1-0.5,1-1V12h-2V24z"/>
	<path d="M24,5h-2V3c0-0.5-0.5-1-1-1s-1,0.5-1,1v2h-2c-0.5,0-1,0.5-1,1s0.5,1,1,1h2v2c0,0.5,0.5,1,1,1s1-0.5,1-1V7h2
		c0.5,0,1-0.5,1-1S24.5,5,24,5z"/>
	<path d="M17,10h-7c-0.5,0-1,0.5-1,1s0.5,1,1,1h7c0.5,0,1-0.5,1-1S17.5,10,17,10z"/>
	<path d="M17,14h-7c-0.5,0-1,0.5-1,1s0.5,1,1,1h7c0.5,0,1-0.5,1-1S17.5,14,17,14z"/>
	<path d="M17,18h-7c-0.5,0-1,0.5-1,1s0.5,1,1,1h7c0.5,0,1-0.5,1-1S17.5,18,17,18z"/>
</g>
</svg>
