<?xml version="1.0" encoding="utf-8"?>
<!-- Generator: Adobe Illustrator 19.2.1, SVG Export Plug-In . SVG Version: 6.00 Build 0)  -->
<svg version="1.1" id="Layer_1" xmlns="http://www.w3.org/2000/svg" xmlns:xlink="http://www.w3.org/1999/xlink" x="0px" y="0px"
	 width="28px" height="28px" viewBox="0 0 28 28" style="enable-background:new 0 0 28 28;" xml:space="preserve">
<style type="text/css">
	.st0{fill:#034580;}
	.st1{fill:#FFFFFF;}
	.st2{fill:none;}
	.st3{fill:#E3F1F8;}
	.st4{fill:#99D2E8;}
	.st5{fill:#002F5F;}
	.st6{fill:#EB174B;}
	.st7{opacity:0.12;fill-rule:evenodd;clip-rule:evenodd;}
	.st8{fill:#282928;}
</style>
<g>
	<path d="M14,3C7.9,3,3,7.9,3,14s4.9,11,11,11s11-4.9,11-11S20.1,3,14,3z M14,23c-5,0-9-4-9-9c0-5,4-9,9-9s9,4,9,9
		C23,19,19,23,14,23z"/>
	<path d="M12.6,8.2c-0.3-0.2-0.7-0.3-1.1-0.1C11.2,8.3,11,8.6,11,9v10c0,0.4,0.2,0.7,0.6,0.9C11.7,20,11.9,20,12,20
		c0.2,0,0.5-0.1,0.6-0.2l6-5c0.2-0.2,0.4-0.5,0.4-0.8s-0.1-0.6-0.4-0.8L12.6,8.2z M13,16.9v-5.7l3.4,2.9L13,16.9z"/>
</g>
</svg>
