<?xml version="1.0" encoding="utf-8"?>
<!-- Generator: Adobe Illustrator 19.2.1, SVG Export Plug-In . SVG Version: 6.00 Build 0)  -->
<svg version="1.1" id="Layer_1" xmlns="http://www.w3.org/2000/svg" xmlns:xlink="http://www.w3.org/1999/xlink" x="0px" y="0px"
	 width="28px" height="28px" viewBox="0 0 28 28" style="enable-background:new 0 0 28 28;" xml:space="preserve">
<style type="text/css">
	.st0{fill:#034580;}
	.st1{fill:#FFFFFF;}
	.st2{fill:none;}
	.st3{fill:#E3F1F8;}
	.st4{fill:#99D2E8;}
	.st5{fill:#002F5F;}
	.st6{fill:#EB174B;}
	.st7{opacity:0.12;fill-rule:evenodd;clip-rule:evenodd;}
	.st8{fill:#282928;}
</style>
<path d="M25,20c0-3-3-5.7-6.9-6.6C19.3,12.3,20,10.7,20,9c0-3.3-2.7-6-6-6S8,5.7,8,9c0,1.7,0.7,3.3,1.9,4.4C6,14.3,3,17,3,20
	c0,0.6,0.5,3,6.9,3.8l-0.2,1c-0.1,0.4,0.1,0.8,0.4,1c0.3,0.2,0.7,0.2,1.1,0.1l2.8-1.5l2.8,1.5c0.1,0.1,0.3,0.1,0.5,0.1
	c0.2,0,0.4-0.1,0.6-0.2c0.3-0.2,0.5-0.6,0.4-1l-0.2-1C24.5,23.1,25,20.6,25,20z M14,5c2.2,0,4,1.8,4,4c0,2.2-1.8,4-4,4s-4-1.8-4-4
	C10,6.8,11.8,5,14,5z M8,19.5l2.3,2.2l0,0.1c-4.4-0.5-5.2-1.7-5.3-1.9c0.1-2.3,3.4-4.8,7.9-4.9l-1.2,2.4l-3.1,0.4
	c-0.4,0.1-0.7,0.3-0.8,0.7C7.7,18.9,7.8,19.3,8,19.5z M15.9,20.7c-0.2,0.2-0.3,0.6-0.3,0.9l0.3,1.6l-1.5-0.8
	c-0.1-0.1-0.3-0.1-0.5-0.1s-0.3,0-0.5,0.1l-1.5,0.8l0.3-1.6c0-0.3-0.1-0.7-0.3-0.9l-1.2-1.2l1.6-0.2c0.3,0,0.6-0.2,0.8-0.5l0.7-1.5
	l0.7,1.5c0.1,0.3,0.4,0.5,0.8,0.5l1.6,0.2L15.9,20.7z M17.7,21.8L17.7,21.8l2.2-2.3c0.3-0.3,0.4-0.7,0.2-1c-0.1-0.4-0.4-0.6-0.8-0.7
	l-3.1-0.4L15.1,15c4.5,0.1,7.8,2.6,7.9,4.9C22.9,20.1,22.1,21.4,17.7,21.8z"/>
</svg>
