<?xml version="1.0" encoding="utf-8"?>
<!-- Generator: Adobe Illustrator 19.2.1, SVG Export Plug-In . SVG Version: 6.00 Build 0)  -->
<svg version="1.1" id="Layer_1" xmlns="http://www.w3.org/2000/svg" xmlns:xlink="http://www.w3.org/1999/xlink" x="0px" y="0px"
	 width="28px" height="28px" viewBox="0 0 28 28" style="enable-background:new 0 0 28 28;" xml:space="preserve">
<style type="text/css">
	.st0{fill:#034580;}
	.st1{fill:#FFFFFF;}
	.st2{fill:none;}
	.st3{fill:#E3F1F8;}
	.st4{fill:#99D2E8;}
	.st5{fill:#002F5F;}
	.st6{fill:#EB174B;}
	.st7{opacity:0.12;fill-rule:evenodd;clip-rule:evenodd;}
	.st8{fill:#282928;}
</style>
<path d="M13.3,24.7c0.1,0.1,0.2,0.2,0.3,0.2C13.7,25,13.9,25,14,25s0.3,0,0.4-0.1c0.1-0.1,0.2-0.1,0.3-0.2l7-7c0.4-0.4,0.4-1,0-1.4
	s-1-0.4-1.4,0L15,21.6V4c0-0.6-0.4-1-1-1s-1,0.4-1,1v17.6l-5.3-5.3c-0.4-0.4-1-0.4-1.4,0s-0.4,1,0,1.4L13.3,24.7z"/>
</svg>
