<?xml version="1.0" encoding="utf-8"?>
<!-- Generator: Adobe Illustrator 19.2.1, SVG Export Plug-In . SVG Version: 6.00 Build 0)  -->
<svg version="1.1" id="Layer_1" xmlns="http://www.w3.org/2000/svg" xmlns:xlink="http://www.w3.org/1999/xlink" x="0px" y="0px"
	 width="28px" height="28px" viewBox="0 0 28 28" style="enable-background:new 0 0 28 28;" xml:space="preserve">
<style type="text/css">
	.st0{fill:#034580;}
	.st1{fill:#FFFFFF;}
	.st2{fill:none;}
	.st3{fill:#E3F1F8;}
	.st4{fill:#99D2E8;}
	.st5{fill:#002F5F;}
	.st6{fill:#EB174B;}
	.st7{opacity:0.12;fill-rule:evenodd;clip-rule:evenodd;}
	.st8{fill:#282928;}
</style>
<g>
	<path d="M24,4H4C3.5,4,3,4.5,3,5v14c0,0.5,0.5,1,1,1h5v3c0,0.4,0.2,0.7,0.6,0.9C9.7,24,9.8,24,10,24c0.2,0,0.4-0.1,0.6-0.2l4.7-3.8
		H24c0.5,0,1-0.5,1-1V5C25,4.5,24.5,4,24,4z M23,18h-8c-0.2,0-0.5,0.1-0.6,0.2L11,20.9V19c0-0.5-0.5-1-1-1H5V6h18V18z"/>
	<path d="M9,11h10c0.5,0,1-0.5,1-1s-0.5-1-1-1H9c-0.5,0-1,0.5-1,1S8.5,11,9,11z"/>
	<path d="M9,15h8c0.5,0,1-0.5,1-1s-0.5-1-1-1H9c-0.5,0-1,0.5-1,1S8.5,15,9,15z"/>
</g>
</svg>
