<?xml version="1.0" encoding="utf-8"?>
<!-- Generator: Adobe Illustrator 19.2.1, SVG Export Plug-In . SVG Version: 6.00 Build 0)  -->
<svg version="1.1" id="Layer_1" xmlns="http://www.w3.org/2000/svg" xmlns:xlink="http://www.w3.org/1999/xlink" x="0px" y="0px"
	 width="28px" height="28px" viewBox="0 0 28 28" style="enable-background:new 0 0 28 28;" xml:space="preserve">
<style type="text/css">
	.st0{fill:#034580;}
	.st1{fill:#FFFFFF;}
	.st2{fill:none;}
	.st3{fill:#E3F1F8;}
	.st4{fill:#99D2E8;}
	.st5{fill:#002F5F;}
	.st6{fill:#EB174B;}
	.st7{opacity:0.12;fill-rule:evenodd;clip-rule:evenodd;}
	.st8{fill:#282928;}
</style>
<g>
	<path class="st2" d="M19.3,7.7L17,5.4l-2.3,2.3c-0.4,0.4-1,0.4-1.4,0L11,5.4L8.7,7.7c-0.4,0.4-1,0.4-1.4,0L6,6.4v15.2l1.3-1.3
		c0.4-0.4,1-0.4,1.4,0l2.3,2.3l2.3-2.3c0.2-0.2,0.5-0.3,0.7-0.3s0.5,0.1,0.7,0.3l2.3,2.3l2.3-2.3c0.4-0.4,1-0.4,1.4,0l1.3,1.3V6.4
		l-1.3,1.3C20.3,8.1,19.7,8.1,19.3,7.7z M11.5,10c0.8,0,1.5,0.7,1.5,1.5S12.3,13,11.5,13S10,12.3,10,11.5S10.7,10,11.5,10z M16.5,18
		c-0.8,0-1.5-0.7-1.5-1.5s0.7-1.5,1.5-1.5s1.5,0.7,1.5,1.5S17.3,18,16.5,18z M17.7,11.7l-6,6C11.5,17.9,11.3,18,11,18
		s-0.5-0.1-0.7-0.3c-0.4-0.4-0.4-1,0-1.4l6-6c0.4-0.4,1-0.4,1.4,0S18.1,11.3,17.7,11.7z"/>
	<path d="M23.4,3.1C23,2.9,22.6,3,22.3,3.3L20,5.6l-2.3-2.3c-0.4-0.4-1-0.4-1.4,0L14,5.6l-2.3-2.3c-0.4-0.4-1-0.4-1.4,0L8,5.6
		L5.7,3.3C5.4,3,5,2.9,4.6,3.1C4.2,3.2,4,3.6,4,4v20c0,0.4,0.2,0.8,0.6,0.9C5,25.1,5.4,25,5.7,24.7L8,22.4l2.3,2.3
		c0.4,0.4,1,0.4,1.4,0l2.3-2.3l2.3,2.3c0.4,0.4,1,0.4,1.4,0l2.3-2.3l2.3,2.3c0.2,0.2,0.4,0.3,0.7,0.3c0.1,0,0.3,0,0.4-0.1
		c0.4-0.2,0.6-0.5,0.6-0.9V4C24,3.6,23.8,3.2,23.4,3.1z M22,21.6l-1.3-1.3c-0.4-0.4-1-0.4-1.4,0L17,22.6l-2.3-2.3
		C14.5,20.1,14.3,20,14,20s-0.5,0.1-0.7,0.3L11,22.6l-2.3-2.3c-0.4-0.4-1-0.4-1.4,0L6,21.6V6.4l1.3,1.3c0.4,0.4,1,0.4,1.4,0L11,5.4
		l2.3,2.3c0.4,0.4,1,0.4,1.4,0L17,5.4l2.3,2.3c0.4,0.4,1,0.4,1.4,0L22,6.4V21.6z"/>
	<circle cx="16.5" cy="16.5" r="1.5"/>
	<circle cx="11.5" cy="11.5" r="1.5"/>
	<path d="M16.3,10.3l-6,6c-0.4,0.4-0.4,1,0,1.4c0.2,0.2,0.5,0.3,0.7,0.3s0.5-0.1,0.7-0.3l6-6c0.4-0.4,0.4-1,0-1.4
		S16.7,9.9,16.3,10.3z"/>
</g>
</svg>
