<?xml version="1.0" encoding="utf-8"?>
<!-- Generator: Adobe Illustrator 19.2.1, SVG Export Plug-In . SVG Version: 6.00 Build 0)  -->
<svg version="1.1" id="Layer_1" xmlns="http://www.w3.org/2000/svg" xmlns:xlink="http://www.w3.org/1999/xlink" x="0px" y="0px"
	 width="28px" height="28px" viewBox="0 0 28 28" style="enable-background:new 0 0 28 28;" xml:space="preserve">
<style type="text/css">
	.st0{fill:#034580;}
	.st1{fill:#FFFFFF;}
	.st2{fill:none;}
	.st3{fill:#E3F1F8;}
	.st4{fill:#99D2E8;}
	.st5{fill:#002F5F;}
	.st6{fill:#EB174B;}
	.st7{opacity:0.12;fill-rule:evenodd;clip-rule:evenodd;}
	.st8{fill:#282928;}
</style>
<g>
	<path d="M9,14c0,0.2,0,0.4,0,0.6L14.6,9c-0.2,0-0.4,0-0.6,0C11.2,9,9,11.2,9,14z"/>
	<path d="M14,19c2.8,0,5-2.2,5-5c0-0.2,0-0.4,0-0.6L13.4,19C13.6,19,13.8,19,14,19z"/>
	<path d="M23,9.4V20H12.4l-2,2H24c0.5,0,1-0.5,1-1V8c0-0.2,0-0.4-0.1-0.5L23,9.4z"/>
	<path d="M5,9h4c0.3,0,0.7-0.2,0.8-0.5L11.5,6h3.9l0.9,1.3l1.4-1.4l-0.9-1.4C16.7,4.2,16.3,4,16,4h-5c-0.3,0-0.7,0.2-0.8,0.5L8.5,7
		H4C3.5,7,3,7.5,3,8v12.6l2-2V9z"/>
	<path d="M24.7,3.3C24.5,3.1,24.2,3,23.9,3c-0.3,0-0.6,0.1-0.8,0.3L3.3,23.1c-0.4,0.4-0.4,1.1,0,1.6C3.5,24.9,3.8,25,4.1,25
		c0.3,0,0.6-0.1,0.8-0.3L24.7,4.9C25.1,4.5,25.1,3.8,24.7,3.3z"/>
</g>
</svg>
