<?xml version="1.0" encoding="utf-8"?>
<!-- Generator: Adobe Illustrator 19.2.1, SVG Export Plug-In . SVG Version: 6.00 Build 0)  -->
<svg version="1.1" id="Layer_1" xmlns="http://www.w3.org/2000/svg" xmlns:xlink="http://www.w3.org/1999/xlink" x="0px" y="0px"
	 width="28px" height="28px" viewBox="0 0 28 28" style="enable-background:new 0 0 28 28;" xml:space="preserve">
<style type="text/css">
	.st0{fill:#034580;}
	.st1{fill:#FFFFFF;}
	.st2{fill:none;}
	.st3{fill:#E3F1F8;}
	.st4{fill:#99D2E8;}
	.st5{fill:#002F5F;}
	.st6{fill:#EB174B;}
	.st7{opacity:0.12;fill-rule:evenodd;clip-rule:evenodd;}
	.st8{fill:#282928;}
</style>
<g>
	<path d="M25,9.8C25,9.8,25,9.8,25,9.8C25,7.1,22.7,5,20,5c-2.8,0-5,2.2-5,5s2.2,5,5,5c1.2,0,2.3-0.4,3.1-1.1
		c-0.1,1.5-0.5,3.1-1.5,4.3C20.5,19.4,19,20,17,20c-0.5,0-1,0.5-1,1s0.5,1,1,1c2.6,0,4.7-0.9,6.1-2.6C26.1,15.9,25,10.1,25,9.8z
		 M20,13c-1.7,0-3-1.4-3-3c0-1.7,1.3-3,3-3c1.7,0,3,1.3,3,3C23,11.6,21.6,13,20,13z"/>
	<path d="M13,9.8C13,7.1,10.7,5,8,5c-2.8,0-5,2.2-5,5s2.2,5,5,5c1.2,0,2.3-0.4,3.1-1.1c-0.1,1.5-0.5,3.1-1.5,4.3C8.5,19.4,7,20,5,20
		c-0.5,0-1,0.5-1,1s0.5,1,1,1c2.6,0,4.7-0.9,6.1-2.6C14.1,15.9,13,10.1,13,9.8C13,9.8,13,9.8,13,9.8z M8,13c-1.7,0-3-1.4-3-3
		c0-1.7,1.3-3,3-3c1.7,0,3,1.3,3,3C11,11.6,9.6,13,8,13z"/>
</g>
</svg>
