<?xml version="1.0" encoding="utf-8"?>
<!-- Generator: Adobe Illustrator 19.2.1, SVG Export Plug-In . SVG Version: 6.00 Build 0)  -->
<svg version="1.1" id="Layer_1" xmlns="http://www.w3.org/2000/svg" xmlns:xlink="http://www.w3.org/1999/xlink" x="0px" y="0px"
	 width="28px" height="28px" viewBox="0 0 28 28" style="enable-background:new 0 0 28 28;" xml:space="preserve">
<style type="text/css">
	.st0{fill:#034580;}
	.st1{fill:#FFFFFF;}
	.st2{fill:none;}
	.st3{fill:#E3F1F8;}
	.st4{fill:#99D2E8;}
	.st5{fill:#002F5F;}
	.st6{fill:#EB174B;}
	.st7{opacity:0.12;fill-rule:evenodd;clip-rule:evenodd;}
	.st8{fill:#282928;}
</style>
<path d="M25.8,20.4L23,16.6l-1-5.7C21.9,6.5,18.4,3,14,3s-7.9,3.5-8,7.9l-1,5.7l-2.8,3.8c-0.2,0.3-0.3,0.7-0.1,1.1
	C2.3,21.8,2.6,22,3,22h6.1c0.5,2.3,2.5,4,4.9,4s4.4-1.7,4.9-4H25c0.4,0,0.7-0.2,0.9-0.5C26.1,21.1,26,20.7,25.8,20.4z M14,24
	c-1.3,0-2.4-0.8-2.8-2h5.6C16.4,23.2,15.3,24,14,24z M5,20l1.8-2.4C6.9,17.5,7,17.3,7,17.2l1-6c0,0,0,0,0-0.1c0,0,0,0,0-0.1
	c0-3.3,2.7-6,6-6s6,2.7,6,6c0,0,0,0,0,0.1c0,0,0,0.1,0,0.1l1,6c0,0.2,0.1,0.3,0.2,0.4L23,20H5z"/>
</svg>
