<?xml version="1.0" encoding="utf-8"?>
<!-- Generator: Adobe Illustrator 19.2.1, SVG Export Plug-In . SVG Version: 6.00 Build 0)  -->
<svg version="1.1" id="Layer_1" xmlns="http://www.w3.org/2000/svg" xmlns:xlink="http://www.w3.org/1999/xlink" x="0px" y="0px"
	 width="28px" height="28px" viewBox="0 0 28 28" style="enable-background:new 0 0 28 28;" xml:space="preserve">
<style type="text/css">
	.st0{fill:#034580;}
	.st1{fill:#FFFFFF;}
	.st2{fill:none;}
	.st3{fill:#E3F1F8;}
	.st4{fill:#99D2E8;}
	.st5{fill:#002F5F;}
	.st6{fill:#EB174B;}
	.st7{opacity:0.12;fill-rule:evenodd;clip-rule:evenodd;}
	.st8{fill:#282928;}
</style>
<g>
	<path d="M22,10.8h-2V9c0-3.3-2.7-6-6-6S8,5.7,8,9v1.8H6c-0.5,0-1,0.5-1,1v12c0,0.5,0.5,1,1,1h16c0.5,0,1-0.5,1-1v-12
		C23,11.2,22.5,10.8,22,10.8z M10,9c0-2.2,1.8-4,4-4s4,1.8,4,4v1.8h-8V9z M21,22.8H7v-10h14V22.8z"/>
	<path d="M14,20.8c1.7,0,3-1.4,3-3c0-1.7-1.3-3-3-3s-3,1.3-3,3C11,19.4,12.3,20.8,14,20.8z M14,16.8c0.5,0,1,0.5,1,1s-0.5,1-1,1
		s-1-0.5-1-1S13.5,16.8,14,16.8z"/>
</g>
</svg>
