<?xml version="1.0" encoding="utf-8"?>
<!-- Generator: Adobe Illustrator 19.2.1, SVG Export Plug-In . SVG Version: 6.00 Build 0)  -->
<svg version="1.1" id="Layer_1" xmlns="http://www.w3.org/2000/svg" xmlns:xlink="http://www.w3.org/1999/xlink" x="0px" y="0px"
	 width="70px" height="70px" viewBox="0 0 70 70" style="enable-background:new 0 0 70 70;" xml:space="preserve">
<style type="text/css">
	.st0{fill:#034580;}
	.st1{fill:#FFFFFF;}
	.st2{fill:none;}
	.st3{fill:#E3F1F8;}
	.st4{fill:#99D2E8;}
	.st5{fill:#002F5F;}
	.st6{fill:#EB174B;}
	.st7{opacity:0.12;fill-rule:evenodd;clip-rule:evenodd;}
	.st8{fill:#282928;}
</style>
<g>
	<path class="st3" d="M51,16.9l4.8-4.8c-1-0.9-2.1-1.8-3.2-2.5L48.1,14L51,16.9z"/>
	<path class="st3" d="M56,21.9l4.5-4.5c-0.8-1.1-1.6-2.2-2.5-3.2L53.1,19L56,21.9z"/>
	<path class="st3" d="M55,27.2c0.9,2.4,1.5,5,1.5,7.8c0,5.4-2,10.3-5.3,14.1l6.7,6.7c5-5.5,8-12.8,8-20.8c0-5.4-1.4-10.6-3.9-15
		l-5,5L55,27.2z"/>
	<path class="st3" d="M52.6,29.3c-1.3,0.8-2.9,1.2-4.4,1.2c-1.8,0-3.5-0.5-5-1.6L37.1,35l12,12c2.7-3.2,4.4-7.4,4.4-12
		C53.5,33,53.2,31.1,52.6,29.3z"/>
	<path class="st3" d="M23,20.9l7.7,7.7c0.1,0.1,0.2,0.2,0.3,0.3l4,4l6.1-6.1c-2.1-2.9-2.1-6.4-0.2-9.3c-1.9-0.6-3.8-1-5.9-1
		C30.4,16.5,26.3,18.2,23,20.9z"/>
	<path class="st3" d="M47,49.1l-12-12l-12,12c3.2,2.7,7.4,4.4,12,4.4S43.7,51.8,47,49.1z"/>
	<path class="st3" d="M35,56.5c-5.4,0-10.3-2-14.1-5.3L14.2,58c5.5,5,12.8,8,20.8,8s15.3-3,20.8-8l-6.7-6.7
		C45.3,54.5,40.4,56.5,35,56.5z"/>
	<path class="st3" d="M13.5,35c0-2.8,0.5-5.4,1.5-7.9l-6.4-8.4C5.7,23.5,4,29,4,35c0,8,3,15.3,8,20.8l6.7-6.7
		C15.5,45.3,13.5,40.4,13.5,35z"/>
	<path class="st3" d="M20.9,47l12-12l-3.5-3.5l-8.3,2c-0.6,0.1-1.2-0.1-1.5-0.5L17.2,30c-0.4,1.6-0.7,3.3-0.7,5
		C16.5,39.6,18.2,43.7,20.9,47z"/>
	<path class="st3" d="M35,13.5c2.8,0,5.5,0.6,8,1.5l0.8-0.9c0.1-0.1,0.1-0.2,0.1-0.2L50,7.9C45.6,5.4,40.4,4,35,4
		c-8,0-15.3,3-20.8,8l6.7,6.7C24.7,15.5,29.6,13.5,35,13.5z"/>
	<path class="st6" d="M55,27.2L54.3,28c-0.5,0.5-1.1,1-1.7,1.3c0.6,1.8,0.9,3.7,0.9,5.7c0,4.6-1.7,8.7-4.4,12l2.1,2.1
		c3.3-3.8,5.3-8.7,5.3-14.1C56.5,32.3,56,29.6,55,27.2z"/>
	<path class="st6" d="M18.8,49.1l2.1-2.1c-2.7-3.2-4.4-7.4-4.4-12c0-1.7,0.3-3.4,0.7-5L15,27.1c-1,2.4-1.5,5.1-1.5,7.9
		C13.5,40.4,15.5,45.3,18.8,49.1z"/>
	<path class="st6" d="M20.9,18.8l2.1,2.1c3.2-2.7,7.4-4.4,12-4.4c2.1,0,4,0.4,5.9,1c0.4-0.5,0.8-1.1,1.3-1.6L43,15
		c-2.5-1-5.1-1.5-8-1.5C29.6,13.5,24.7,15.5,20.9,18.8z"/>
	<path class="st6" d="M49.1,51.2L47,49.1c-3.2,2.7-7.4,4.4-12,4.4s-8.7-1.7-12-4.4l-2.1,2.1c3.8,3.3,8.7,5.3,14.1,5.3
		S45.3,54.5,49.1,51.2z"/>
	<polygon class="st4" points="21.2,30.3 26.8,29 9.6,11.7 8.1,13.2 	"/>
	<path class="st5" d="M58,55.8l-6.7-6.7L49.1,47l-12-12l6.1-6.1c1.5,1.1,3.2,1.6,5,1.6c1.5,0,3-0.4,4.4-1.2c0.6-0.4,1.2-0.8,1.7-1.3
		l0.7-0.7l2.1-2.2l5-5l2.9-2.9c0.6-0.6,0.6-1.5,0-2.1s-1.5-0.6-2.1,0l-2.4,2.4L56,21.9L53.1,19l4.8-4.8l2.1-2.1
		c0.6-0.6,0.6-1.5,0-2.1s-1.5-0.6-2.1,0L55.8,12L51,16.9L48.1,14l4.5-4.5l2.4-2.4c0.6-0.6,0.6-1.5,0-2.1s-1.5-0.6-2.1,0L50,7.9
		l-6.1,6.1c-0.1,0.1-0.1,0.1-0.1,0.2L43,15l-0.8,0.9c-0.5,0.5-0.9,1-1.3,1.6c-1.9,2.9-1.8,6.4,0.2,9.3L35,32.9l-4-4
		c-0.1-0.1-0.2-0.2-0.3-0.3L23,20.9l-2.1-2.1L14.2,12l-3.5-3.5c-0.6-0.6-1.5-0.6-2.1,0L5,12c-0.5,0.5-0.6,1.4-0.1,2l3.7,4.8l6.4,8.4
		l2.2,2.9l2.2,2.9c0.4,0.5,1,0.7,1.5,0.5l8.3-2l3.5,3.5l-12,12l-2.1,2.1L12,55.8l-2.6,2.6c-0.6,0.6-0.6,1.5,0,2.1
		c0.3,0.3,0.7,0.4,1.1,0.4s0.8-0.1,1.1-0.4l2.6-2.6l6.7-6.7l2.1-2.1l12-12l12,12l2.1,2.1l6.7,6.7l2.1,2.1c0.3,0.3,0.7,0.4,1.1,0.4
		s0.8-0.1,1.1-0.4c0.6-0.6,0.6-1.5,0-2.1L58,55.8z M44.3,18C44.3,18,44.3,18,44.3,18l1.7-1.9l7.9,7.9l-1.7,1.9
		c-2.1,2.1-5.7,2.1-7.9,0C41.4,23,42.5,19.8,44.3,18z M26.8,29l-5.6,1.3L8.1,13.2l1.5-1.5L26.8,29z"/>
	<path class="st1" d="M44.3,25.9c2.1,2.1,5.7,2.1,7.9,0l1.7-1.9L46,16.2L44.3,18c0,0,0,0,0,0C42.5,19.8,41.4,23,44.3,25.9z"/>
</g>
</svg>
