<?xml version="1.0" encoding="utf-8"?>
<!-- Generator: Adobe Illustrator 19.2.1, SVG Export Plug-In . SVG Version: 6.00 Build 0)  -->
<svg version="1.1" id="Layer_1" xmlns="http://www.w3.org/2000/svg" xmlns:xlink="http://www.w3.org/1999/xlink" x="0px" y="0px"
	 width="28px" height="28px" viewBox="0 0 28 28" style="enable-background:new 0 0 28 28;" xml:space="preserve">
<style type="text/css">
	.st0{fill:#034580;}
	.st1{fill:#FFFFFF;}
	.st2{fill:none;}
	.st3{fill:#E3F1F8;}
	.st4{fill:#99D2E8;}
	.st5{fill:#002F5F;}
	.st6{fill:#EB174B;}
	.st7{opacity:0.12;fill-rule:evenodd;clip-rule:evenodd;}
	.st8{fill:#282928;}
</style>
<path d="M21.6,8.6C20.6,5.3,17.6,3,14,3S7.4,5.3,6.4,8.6C3.9,8.9,2,11,2,13.5c0,2.8,2.2,5,5,5c0.5,0,1-0.5,1-1V11c0-3.3,2.7-6,6-6
	s6,2.7,6,6v3.5c0,1.8-0.8,3.4-2,4.5h-4c-0.5,0-1,0.5-1,1v4c0,0.5,0.5,1,1,1h4c0.5,0,1-0.5,1-1v-3.3c0.8-0.6,1.4-1.4,1.9-2.2
	c0,0,0,0,0.1,0c2.8,0,5-2.2,5-5C26,11,24.1,8.9,21.6,8.6z M6,16.3c-1.2-0.4-2-1.5-2-2.8s0.8-2.4,2-2.8V16.3z M17,23h-2v-2h2V23z
	 M22,16.3v-5.7c1.2,0.4,2,1.5,2,2.8S23.2,15.9,22,16.3z"/>
</svg>
