<?xml version="1.0" encoding="utf-8"?>
<!-- Generator: Adobe Illustrator 19.2.1, SVG Export Plug-In . SVG Version: 6.00 Build 0)  -->
<svg version="1.1" id="Layer_1" xmlns="http://www.w3.org/2000/svg" xmlns:xlink="http://www.w3.org/1999/xlink" x="0px" y="0px"
	 width="28px" height="28px" viewBox="0 0 28 28" style="enable-background:new 0 0 28 28;" xml:space="preserve">
<style type="text/css">
	.st0{fill:#034580;}
	.st1{fill:#FFFFFF;}
	.st2{fill:none;}
	.st3{fill:#E3F1F8;}
	.st4{fill:#99D2E8;}
	.st5{fill:#002F5F;}
	.st6{fill:#EB174B;}
	.st7{opacity:0.12;fill-rule:evenodd;clip-rule:evenodd;}
	.st8{fill:#282928;}
</style>
<path d="M25.7,12.3l-3-3C22.5,9.1,22.3,9,22,9h-6V6c0-0.5-0.5-1-1-1H3C2.5,5,2,5.5,2,6v15c0,0.5,0.5,1,1,1h2c0.2,1.7,1.7,3,3.5,3
	s3.2-1.3,3.5-3H16c0.2,1.7,1.7,3,3.5,3s3.2-1.3,3.5-3h2c0.5,0,1-0.5,1-1v-8C26,12.7,25.9,12.5,25.7,12.3z M8.5,23
	C7.7,23,7,22.3,7,21.5C7,20.7,7.7,20,8.5,20s1.5,0.7,1.5,1.5C10,22.3,9.3,23,8.5,23z M14,20h-2.3c-0.6-1.2-1.8-2-3.2-2
	s-2.6,0.8-3.2,2H4V7h10V20z M16,11h5.6l2,2H16V11z M19.5,23c-0.8,0-1.5-0.7-1.5-1.5c0-0.8,0.7-1.5,1.5-1.5s1.5,0.7,1.5,1.5
	C21,22.3,20.3,23,19.5,23z M24,20h-1.3c-0.6-1.2-1.8-2-3.2-2s-2.6,0.8-3.2,2H16v-5h8V20z"/>
</svg>
